M48
;Layer_Color=9474304
;FILE_FORMAT=4:3
METRIC,TZ
;TYPE=PLATED
T1F00S00C0.250
T2F00S00C0.580
T3F00S00C0.600
T4F00S00C0.900
%
T01
X23241Y9271
X37719
X40640Y9779
X9525Y25019
X7696Y26289
X10160Y29718
X12192Y27424
X12065Y23876
X12192Y21336
X13903Y21657
X15494Y20955
X15545Y22352
X17907Y22606
X19990
X21209Y24257
X23241Y22860
X22479Y21463
X18415Y20701
X17029
X22225Y16691
X23241Y12954
X24130Y26194
X24003Y27813
X21498Y30261
X21082Y31369
X16256Y32317
X14351Y35306
X11684Y33274
X30836Y34417
X29083Y37973
T02
X4367Y10827
Y14827
T03
X16129Y27301
Y28571
X17399
Y27305
T04
X11203Y3683
X13743
X18188
X20728
X25273
X27813
X30353
X32893
X8663
X6123
X4191Y28575
Y31623
Y34671
Y37719
Y40767
X40386Y39497
Y36957
Y34417
Y30484
Y27944
Y25404
Y22864
Y20324
Y17784
Y15244
Y12704
M30
