G04*
G04 #@! TF.GenerationSoftware,Altium Limited,Altium Designer,18.1.7 (191)*
G04*
G04 Layer_Color=8421504*
%FSLAX43Y43*%
%MOMM*%
G71*
G01*
G75*
%ADD19R,1.550X1.100*%
%ADD20R,1.550X3.450*%
%ADD21R,2.200X2.200*%
%ADD22R,0.850X0.600*%
%ADD23R,0.250X1.350*%
%ADD24R,1.350X0.250*%
%ADD25O,1.350X0.250*%
%ADD26R,1.900X1.900*%
%ADD27R,2.500X0.250*%
%ADD28R,0.762X0.762*%
%ADD29R,0.250X1.500*%
%ADD30O,0.250X1.500*%
%ADD31R,1.600X0.900*%
D19*
X16583Y15254D02*
D03*
Y12954D02*
D03*
Y10654D02*
D03*
D20*
X9833Y12954D02*
D03*
D21*
X10694Y41910D02*
D03*
X20294D02*
D03*
D22*
X27117Y41163D02*
D03*
Y39863D02*
D03*
X29017D02*
D03*
Y41163D02*
D03*
D23*
X15045Y30769D02*
D03*
X15545D02*
D03*
X16045D02*
D03*
X16545D02*
D03*
X17045D02*
D03*
X17545D02*
D03*
X18045D02*
D03*
X18545D02*
D03*
Y25119D02*
D03*
X18045D02*
D03*
X17545D02*
D03*
X17045D02*
D03*
X16545D02*
D03*
X16045D02*
D03*
X15545D02*
D03*
X15045D02*
D03*
D24*
X19620Y29694D02*
D03*
Y29194D02*
D03*
Y28694D02*
D03*
Y28194D02*
D03*
Y27694D02*
D03*
Y27194D02*
D03*
Y26694D02*
D03*
Y26194D02*
D03*
X13970D02*
D03*
Y26694D02*
D03*
Y27194D02*
D03*
Y27694D02*
D03*
Y28194D02*
D03*
Y28694D02*
D03*
Y29194D02*
D03*
D25*
Y29694D02*
D03*
D26*
X2207Y8877D02*
D03*
Y16777D02*
D03*
D27*
X5667Y11527D02*
D03*
Y12177D02*
D03*
Y12827D02*
D03*
Y13477D02*
D03*
Y14127D02*
D03*
D28*
X29210Y14732D02*
D03*
X27813D02*
D03*
X27849Y11049D02*
D03*
X29224D02*
D03*
X22352D02*
D03*
X20955D02*
D03*
X22352Y14732D02*
D03*
X20955D02*
D03*
X32766Y8763D02*
D03*
X34163D02*
D03*
X32766Y12573D02*
D03*
X34163D02*
D03*
X33147Y31750D02*
D03*
X34544D02*
D03*
X20955Y18161D02*
D03*
X22352D02*
D03*
X11049Y35306D02*
D03*
X12446D02*
D03*
X16256Y35179D02*
D03*
X17653D02*
D03*
X6477Y24511D02*
D03*
X7874D02*
D03*
X7747Y20828D02*
D03*
X6350D02*
D03*
X8890Y31877D02*
D03*
X7493D02*
D03*
X28702Y33655D02*
D03*
X27305D02*
D03*
X24511Y37084D02*
D03*
X25908D02*
D03*
D29*
X39128Y3863D02*
D03*
X39628D02*
D03*
X40128D02*
D03*
X40628D02*
D03*
X40128Y7313D02*
D03*
X39628D02*
D03*
X39128D02*
D03*
D30*
X40628D02*
D03*
D31*
X39878Y5588D02*
D03*
M02*
