G04*
G04 #@! TF.GenerationSoftware,Altium Limited,Altium Designer,18.1.7 (191)*
G04*
G04 Layer_Physical_Order=1*
G04 Layer_Color=255*
%FSLAX43Y43*%
%MOMM*%
G71*
G01*
G75*
%ADD19R,1.550X1.100*%
%ADD20R,1.550X3.450*%
%ADD21R,2.200X2.200*%
%ADD22R,0.850X0.600*%
%ADD23R,0.250X1.350*%
%ADD24R,1.350X0.250*%
%ADD25O,1.350X0.250*%
%ADD26R,1.900X1.900*%
%ADD27R,2.500X0.250*%
%ADD28R,0.762X0.762*%
%ADD29R,0.250X1.500*%
%ADD30O,0.250X1.500*%
%ADD31R,1.600X0.900*%
%ADD51C,0.230*%
%ADD52C,1.500*%
%ADD53R,3.000X3.000*%
%ADD54R,1.500X1.500*%
%ADD55R,1.500X1.500*%
%ADD56C,0.550*%
%ADD57C,0.580*%
%ADD58C,0.900*%
G36*
X27234Y41925D02*
X27248Y41740D01*
X27260Y41665D01*
X27275Y41601D01*
X27294Y41549D01*
X27317Y41509D01*
X27342Y41480D01*
X27372Y41463D01*
X27404Y41457D01*
X26830D01*
X26862Y41463D01*
X26892Y41480D01*
X26917Y41509D01*
X26940Y41549D01*
X26959Y41601D01*
X26974Y41665D01*
X26986Y41740D01*
X26995Y41827D01*
X27002Y42035D01*
X27232D01*
X27234Y41925D01*
D02*
G37*
G36*
X29442Y41418D02*
X29459Y41388D01*
X29488Y41363D01*
X29528Y41340D01*
X29580Y41321D01*
X29644Y41306D01*
X29719Y41294D01*
X29806Y41285D01*
X30014Y41278D01*
Y41048D01*
X29904Y41046D01*
X29719Y41032D01*
X29644Y41020D01*
X29580Y41005D01*
X29528Y40986D01*
X29488Y40963D01*
X29459Y40938D01*
X29442Y40908D01*
X29436Y40875D01*
Y41451D01*
X29442Y41418D01*
D02*
G37*
G36*
X26695Y40866D02*
X26689Y40898D01*
X26672Y40926D01*
X26643Y40951D01*
X26603Y40973D01*
X26551Y40991D01*
X26488Y41006D01*
X26413Y41018D01*
X26327Y41026D01*
X26120Y41033D01*
Y41263D01*
X26230Y41265D01*
X26414Y41279D01*
X26490Y41291D01*
X26553Y41306D01*
X26605Y41325D01*
X26646Y41348D01*
X26675Y41373D01*
X26692Y41403D01*
X26698Y41436D01*
X26695Y40866D01*
D02*
G37*
G36*
X10852Y40810D02*
X10843Y40800D01*
X10835Y40783D01*
X10828Y40759D01*
X10822Y40729D01*
X10817Y40692D01*
X10811Y40599D01*
X10809Y40478D01*
X10579D01*
X10578Y40542D01*
X10566Y40729D01*
X10560Y40759D01*
X10553Y40783D01*
X10545Y40800D01*
X10536Y40810D01*
X10526Y40813D01*
X10862D01*
X10852Y40810D01*
D02*
G37*
G36*
X29338Y39560D02*
X29308Y39543D01*
X29283Y39514D01*
X29260Y39474D01*
X29241Y39422D01*
X29226Y39359D01*
X29214Y39284D01*
X29205Y39198D01*
X29198Y38991D01*
X28968D01*
X28966Y39100D01*
X28952Y39284D01*
X28940Y39359D01*
X28925Y39422D01*
X28906Y39474D01*
X28883Y39514D01*
X28858Y39543D01*
X28828Y39560D01*
X28795Y39566D01*
X29371D01*
X29338Y39560D01*
D02*
G37*
G36*
X27372D02*
X27342Y39543D01*
X27317Y39514D01*
X27294Y39474D01*
X27275Y39422D01*
X27260Y39359D01*
X27248Y39284D01*
X27239Y39198D01*
X27232Y38991D01*
X27002D01*
X27000Y39100D01*
X26986Y39284D01*
X26974Y39359D01*
X26959Y39422D01*
X26940Y39474D01*
X26917Y39514D01*
X26892Y39543D01*
X26862Y39560D01*
X26830Y39566D01*
X27404D01*
X27372Y39560D01*
D02*
G37*
G36*
X29199Y38672D02*
X29218Y38359D01*
X29227Y38302D01*
X29237Y38255D01*
X29249Y38217D01*
X29262Y38188D01*
X29278Y38167D01*
X28888D01*
X28904Y38188D01*
X28917Y38217D01*
X28929Y38255D01*
X28939Y38302D01*
X28948Y38359D01*
X28961Y38497D01*
X28967Y38672D01*
X28968Y38773D01*
X29198D01*
X29199Y38672D01*
D02*
G37*
G36*
X24628Y37928D02*
X24642Y37744D01*
X24654Y37669D01*
X24669Y37606D01*
X24688Y37554D01*
X24711Y37514D01*
X24736Y37485D01*
X24766Y37468D01*
X24799Y37462D01*
X24223D01*
X24256Y37468D01*
X24286Y37485D01*
X24311Y37514D01*
X24334Y37554D01*
X24353Y37606D01*
X24368Y37669D01*
X24380Y37744D01*
X24389Y37830D01*
X24396Y38037D01*
X24626D01*
X24628Y37928D01*
D02*
G37*
G36*
X26289Y37339D02*
X26306Y37309D01*
X26335Y37284D01*
X26375Y37261D01*
X26427Y37242D01*
X26491Y37227D01*
X26566Y37215D01*
X26653Y37206D01*
X26861Y37199D01*
Y36969D01*
X26751Y36967D01*
X26566Y36953D01*
X26491Y36941D01*
X26427Y36926D01*
X26375Y36907D01*
X26335Y36884D01*
X26306Y36859D01*
X26289Y36829D01*
X26283Y36797D01*
Y37371D01*
X26289Y37339D01*
D02*
G37*
G36*
X24136Y36797D02*
X24130Y36829D01*
X24113Y36859D01*
X24084Y36884D01*
X24044Y36907D01*
X23992Y36926D01*
X23928Y36941D01*
X23853Y36953D01*
X23766Y36962D01*
X23558Y36969D01*
Y37199D01*
X23668Y37201D01*
X23853Y37215D01*
X23928Y37227D01*
X23992Y37242D01*
X24044Y37261D01*
X24084Y37284D01*
X24113Y37309D01*
X24130Y37339D01*
X24136Y37371D01*
Y36797D01*
D02*
G37*
G36*
X39856Y36426D02*
X39764Y36505D01*
X39654Y36576D01*
X39527Y36638D01*
X39382Y36692D01*
X39220Y36738D01*
X39040Y36775D01*
X38843Y36805D01*
X38395Y36838D01*
X38145Y36842D01*
Y37072D01*
X38395Y37076D01*
X38843Y37109D01*
X39040Y37139D01*
X39220Y37176D01*
X39382Y37222D01*
X39527Y37276D01*
X39654Y37338D01*
X39764Y37409D01*
X39856Y37488D01*
Y36426D01*
D02*
G37*
G36*
X26163Y36703D02*
X26133Y36686D01*
X26108Y36657D01*
X26085Y36617D01*
X26066Y36565D01*
X26051Y36501D01*
X26039Y36426D01*
X26030Y36339D01*
X26023Y36131D01*
X25793D01*
X25791Y36241D01*
X25777Y36426D01*
X25765Y36501D01*
X25750Y36565D01*
X25731Y36617D01*
X25708Y36657D01*
X25683Y36686D01*
X25653Y36703D01*
X25621Y36709D01*
X26195D01*
X26163Y36703D01*
D02*
G37*
G36*
X17797Y36022D02*
X17811Y35837D01*
X17823Y35762D01*
X17838Y35698D01*
X17857Y35646D01*
X17880Y35606D01*
X17905Y35577D01*
X17935Y35560D01*
X17968Y35554D01*
X17392D01*
X17425Y35560D01*
X17455Y35577D01*
X17480Y35606D01*
X17503Y35646D01*
X17522Y35698D01*
X17537Y35762D01*
X17549Y35837D01*
X17558Y35924D01*
X17565Y36132D01*
X17795D01*
X17797Y36022D01*
D02*
G37*
G36*
X14157Y35111D02*
X14136Y35127D01*
X14107Y35140D01*
X14069Y35152D01*
X14022Y35162D01*
X13965Y35171D01*
X13827Y35184D01*
X13652Y35190D01*
X13551Y35191D01*
Y35421D01*
X13652Y35422D01*
X13965Y35441D01*
X14022Y35450D01*
X14069Y35460D01*
X14107Y35472D01*
X14136Y35485D01*
X14157Y35501D01*
Y35111D01*
D02*
G37*
G36*
X12827Y35561D02*
X12844Y35531D01*
X12873Y35506D01*
X12913Y35483D01*
X12965Y35464D01*
X13029Y35449D01*
X13104Y35437D01*
X13191Y35428D01*
X13399Y35421D01*
Y35191D01*
X13289Y35189D01*
X13104Y35175D01*
X13029Y35163D01*
X12965Y35148D01*
X12913Y35129D01*
X12873Y35106D01*
X12844Y35081D01*
X12827Y35051D01*
X12821Y35019D01*
Y35593D01*
X12827Y35561D01*
D02*
G37*
G36*
X31482Y34901D02*
X31412Y34829D01*
X31204Y34594D01*
X31170Y34548D01*
X31144Y34508D01*
X31125Y34472D01*
X31114Y34442D01*
X31111Y34417D01*
X30835Y34692D01*
X30861Y34696D01*
X30891Y34707D01*
X30926Y34725D01*
X30967Y34752D01*
X31013Y34785D01*
X31120Y34874D01*
X31248Y34993D01*
X31320Y35064D01*
X31482Y34901D01*
D02*
G37*
G36*
X12701Y34922D02*
X12671Y34905D01*
X12646Y34876D01*
X12623Y34836D01*
X12604Y34784D01*
X12589Y34721D01*
X12577Y34646D01*
X12568Y34560D01*
X12561Y34353D01*
X12331D01*
X12329Y34462D01*
X12315Y34646D01*
X12303Y34721D01*
X12288Y34784D01*
X12269Y34836D01*
X12246Y34876D01*
X12221Y34905D01*
X12191Y34922D01*
X12158Y34928D01*
X12733D01*
X12701Y34922D01*
D02*
G37*
G36*
X11304D02*
X11274Y34905D01*
X11249Y34876D01*
X11226Y34836D01*
X11207Y34784D01*
X11192Y34721D01*
X11180Y34646D01*
X11171Y34560D01*
X11164Y34353D01*
X10934D01*
X10932Y34462D01*
X10918Y34646D01*
X10906Y34721D01*
X10891Y34784D01*
X10872Y34836D01*
X10849Y34876D01*
X10824Y34905D01*
X10794Y34922D01*
X10762Y34928D01*
X11337D01*
X11304Y34922D01*
D02*
G37*
G36*
X16511Y34795D02*
X16481Y34778D01*
X16456Y34749D01*
X16433Y34709D01*
X16414Y34657D01*
X16399Y34594D01*
X16387Y34519D01*
X16378Y34433D01*
X16371Y34226D01*
X16141D01*
X16139Y34335D01*
X16125Y34519D01*
X16113Y34594D01*
X16098Y34657D01*
X16079Y34709D01*
X16056Y34749D01*
X16031Y34778D01*
X16001Y34795D01*
X15969Y34801D01*
X16544D01*
X16511Y34795D01*
D02*
G37*
G36*
X27422Y34498D02*
X27436Y34313D01*
X27448Y34238D01*
X27463Y34174D01*
X27482Y34122D01*
X27505Y34082D01*
X27530Y34053D01*
X27560Y34036D01*
X27593Y34030D01*
X27017D01*
X27050Y34036D01*
X27080Y34053D01*
X27105Y34082D01*
X27128Y34122D01*
X27147Y34174D01*
X27162Y34238D01*
X27174Y34313D01*
X27183Y34400D01*
X27190Y34608D01*
X27420D01*
X27422Y34498D01*
D02*
G37*
G36*
X30836Y34142D02*
X30811Y34138D01*
X30780Y34127D01*
X30745Y34109D01*
X30704Y34082D01*
X30658Y34049D01*
X30551Y33960D01*
X30423Y33841D01*
X30351Y33770D01*
X30189Y33933D01*
X30259Y34005D01*
X30468Y34240D01*
X30501Y34286D01*
X30527Y34326D01*
X30546Y34362D01*
X30557Y34392D01*
X30561Y34417D01*
X30836Y34142D01*
D02*
G37*
G36*
X29083Y33910D02*
X29100Y33880D01*
X29129Y33855D01*
X29169Y33832D01*
X29221Y33813D01*
X29285Y33798D01*
X29360Y33786D01*
X29447Y33777D01*
X29655Y33770D01*
Y33540D01*
X29545Y33538D01*
X29360Y33524D01*
X29285Y33512D01*
X29221Y33497D01*
X29169Y33478D01*
X29129Y33455D01*
X29100Y33430D01*
X29083Y33400D01*
X29077Y33368D01*
Y33943D01*
X29083Y33910D01*
D02*
G37*
G36*
X26930Y33368D02*
X26924Y33400D01*
X26907Y33430D01*
X26878Y33455D01*
X26838Y33478D01*
X26786Y33497D01*
X26722Y33512D01*
X26647Y33524D01*
X26560Y33533D01*
X26352Y33540D01*
Y33770D01*
X26462Y33772D01*
X26647Y33786D01*
X26722Y33798D01*
X26786Y33813D01*
X26838Y33832D01*
X26878Y33855D01*
X26907Y33880D01*
X26924Y33910D01*
X26930Y33943D01*
Y33368D01*
D02*
G37*
G36*
X11272Y33850D02*
X11507Y33642D01*
X11553Y33609D01*
X11593Y33583D01*
X11629Y33564D01*
X11659Y33553D01*
X11684Y33549D01*
X11409Y33274D01*
X11405Y33299D01*
X11394Y33329D01*
X11375Y33365D01*
X11349Y33405D01*
X11316Y33451D01*
X11227Y33558D01*
X11108Y33686D01*
X11037Y33758D01*
X11200Y33921D01*
X11272Y33850D01*
D02*
G37*
G36*
X11963Y33249D02*
X11974Y33219D01*
X11993Y33183D01*
X12019Y33143D01*
X12052Y33097D01*
X12141Y32990D01*
X12260Y32862D01*
X12331Y32790D01*
X12168Y32627D01*
X12096Y32698D01*
X11861Y32906D01*
X11815Y32939D01*
X11775Y32965D01*
X11739Y32984D01*
X11709Y32995D01*
X11684Y32999D01*
X11959Y33274D01*
X11963Y33249D01*
D02*
G37*
G36*
X7610Y32720D02*
X7624Y32535D01*
X7636Y32460D01*
X7651Y32396D01*
X7670Y32344D01*
X7693Y32304D01*
X7718Y32275D01*
X7748Y32258D01*
X7780Y32252D01*
X7206D01*
X7238Y32258D01*
X7268Y32275D01*
X7293Y32304D01*
X7316Y32344D01*
X7335Y32396D01*
X7350Y32460D01*
X7362Y32535D01*
X7371Y32622D01*
X7378Y32830D01*
X7608D01*
X7610Y32720D01*
D02*
G37*
G36*
X33264Y32593D02*
X33278Y32408D01*
X33290Y32333D01*
X33305Y32269D01*
X33324Y32217D01*
X33347Y32177D01*
X33372Y32148D01*
X33402Y32131D01*
X33435Y32125D01*
X32860D01*
X32892Y32131D01*
X32922Y32148D01*
X32947Y32177D01*
X32970Y32217D01*
X32989Y32269D01*
X33004Y32333D01*
X33016Y32408D01*
X33025Y32495D01*
X33032Y32703D01*
X33262D01*
X33264Y32593D01*
D02*
G37*
G36*
X9271Y32132D02*
X9288Y32102D01*
X9317Y32077D01*
X9357Y32054D01*
X9409Y32035D01*
X9473Y32020D01*
X9548Y32008D01*
X9635Y31999D01*
X9843Y31992D01*
Y31762D01*
X9733Y31760D01*
X9548Y31746D01*
X9473Y31734D01*
X9409Y31719D01*
X9357Y31700D01*
X9317Y31677D01*
X9288Y31652D01*
X9271Y31622D01*
X9265Y31590D01*
Y32165D01*
X9271Y32132D01*
D02*
G37*
G36*
X34925Y32005D02*
X34942Y31975D01*
X34971Y31950D01*
X35011Y31927D01*
X35063Y31908D01*
X35127Y31893D01*
X35202Y31881D01*
X35289Y31872D01*
X35497Y31865D01*
Y31635D01*
X35387Y31633D01*
X35202Y31619D01*
X35127Y31607D01*
X35063Y31592D01*
X35011Y31573D01*
X34971Y31550D01*
X34942Y31525D01*
X34925Y31495D01*
X34919Y31462D01*
Y32037D01*
X34925Y32005D01*
D02*
G37*
G36*
X18167Y31441D02*
X17923D01*
X17924Y31445D01*
X17926Y31457D01*
X17927Y31505D01*
X17930Y31839D01*
X18160D01*
X18167Y31441D01*
D02*
G37*
G36*
X17667D02*
X17423D01*
X17424Y31447D01*
X17426Y31464D01*
X17429Y31723D01*
X17430Y32016D01*
X17660D01*
X17667Y31441D01*
D02*
G37*
G36*
X17167D02*
X16923D01*
X16924Y31447D01*
X16926Y31464D01*
X16929Y31723D01*
X16930Y32016D01*
X17160D01*
X17167Y31441D01*
D02*
G37*
G36*
X16667D02*
X16423D01*
X16424Y31447D01*
X16426Y31464D01*
X16429Y31723D01*
X16430Y32016D01*
X16660D01*
X16667Y31441D01*
D02*
G37*
G36*
X15667D02*
X15423D01*
X15424Y31447D01*
X15426Y31464D01*
X15429Y31723D01*
X15430Y32016D01*
X15660D01*
X15667Y31441D01*
D02*
G37*
G36*
X15167D02*
X14923D01*
X14924Y31443D01*
X14926Y31451D01*
X14927Y31463D01*
X14929Y31563D01*
X14930Y31691D01*
X15160D01*
X15167Y31441D01*
D02*
G37*
G36*
X32769Y31372D02*
X32763Y31398D01*
X32746Y31421D01*
X32717Y31441D01*
X32677Y31459D01*
X32625Y31474D01*
X32562Y31486D01*
X32487Y31496D01*
X32303Y31507D01*
X32194Y31508D01*
Y31738D01*
X32304Y31740D01*
X32488Y31754D01*
X32564Y31766D01*
X32627Y31781D01*
X32679Y31800D01*
X32720Y31823D01*
X32749Y31848D01*
X32766Y31878D01*
X32772Y31910D01*
X32769Y31372D01*
D02*
G37*
G36*
X20888Y31174D02*
X20867Y31190D01*
X20838Y31203D01*
X20800Y31215D01*
X20753Y31225D01*
X20696Y31234D01*
X20558Y31247D01*
X20383Y31253D01*
X20282Y31254D01*
Y31484D01*
X20383Y31485D01*
X20696Y31504D01*
X20753Y31513D01*
X20800Y31523D01*
X20838Y31535D01*
X20867Y31548D01*
X20888Y31564D01*
Y31174D01*
D02*
G37*
G36*
X19242Y31254D02*
X19132Y31252D01*
X18948Y31238D01*
X18873Y31226D01*
X18809Y31211D01*
X18757Y31192D01*
X18717Y31169D01*
X18687Y31144D01*
X18670Y31114D01*
X18664Y31081D01*
X18667Y31441D01*
X18673Y31449D01*
X18690Y31456D01*
X18719Y31463D01*
X18759Y31469D01*
X18874Y31477D01*
X19242Y31484D01*
Y31254D01*
D02*
G37*
G36*
X16425Y30379D02*
X16473Y30377D01*
X16545Y30376D01*
Y30146D01*
X16473Y30146D01*
X16423Y30142D01*
X16423Y30097D01*
X16419Y30106D01*
X16408Y30115D01*
X16389Y30122D01*
X16363Y30128D01*
X16329Y30134D01*
X16318Y30135D01*
X16227Y30128D01*
X16201Y30122D01*
X16182Y30115D01*
X16171Y30106D01*
X16167Y30097D01*
X16167Y30144D01*
X16117Y30146D01*
X16045Y30146D01*
Y30376D01*
X16117Y30377D01*
X16165Y30380D01*
X16164Y30450D01*
X16168Y30436D01*
X16179Y30423D01*
X16198Y30412D01*
X16225Y30403D01*
X16260Y30395D01*
X16295Y30389D01*
X16331Y30395D01*
X16365Y30403D01*
X16392Y30412D01*
X16411Y30423D01*
X16422Y30436D01*
X16426Y30450D01*
X16425Y30379D01*
D02*
G37*
G36*
X39856Y29953D02*
X39764Y30032D01*
X39654Y30103D01*
X39527Y30165D01*
X39382Y30219D01*
X39220Y30265D01*
X39040Y30302D01*
X38843Y30332D01*
X38395Y30365D01*
X38145Y30369D01*
Y30599D01*
X38395Y30603D01*
X38843Y30636D01*
X39040Y30666D01*
X39220Y30703D01*
X39382Y30749D01*
X39527Y30803D01*
X39654Y30865D01*
X39764Y30936D01*
X39856Y31015D01*
Y29953D01*
D02*
G37*
G36*
X21502Y29986D02*
X21476Y29982D01*
X21445Y29971D01*
X21409Y29952D01*
X21367Y29926D01*
X21321Y29892D01*
X21213Y29803D01*
X21085Y29684D01*
X21014Y29614D01*
X20867Y29761D01*
Y29579D01*
X20292Y29572D01*
Y29816D01*
X20298Y29815D01*
X20315Y29813D01*
X20574Y29810D01*
X20867Y29809D01*
Y29793D01*
X20921Y29848D01*
X21129Y30084D01*
X21163Y30130D01*
X21189Y30172D01*
X21208Y30208D01*
X21219Y30239D01*
X21223Y30265D01*
X21502Y29986D01*
D02*
G37*
G36*
X13420Y29570D02*
X13405Y29571D01*
X13380Y29573D01*
X12797Y29579D01*
Y29809D01*
X13420Y29818D01*
Y29570D01*
D02*
G37*
G36*
X9966Y29523D02*
X9945Y29539D01*
X9916Y29552D01*
X9878Y29564D01*
X9831Y29574D01*
X9774Y29583D01*
X9636Y29596D01*
X9461Y29602D01*
X9360Y29603D01*
Y29833D01*
X9461Y29834D01*
X9774Y29853D01*
X9831Y29862D01*
X9878Y29872D01*
X9916Y29884D01*
X9945Y29897D01*
X9966Y29913D01*
Y29523D01*
D02*
G37*
G36*
X20298Y29315D02*
X20315Y29313D01*
X20574Y29310D01*
X20867Y29309D01*
Y29079D01*
X20292Y29072D01*
Y29316D01*
X20298Y29315D01*
D02*
G37*
G36*
X13298Y29072D02*
X13292Y29073D01*
X13275Y29075D01*
X13016Y29078D01*
X12723Y29079D01*
Y29309D01*
X13298Y29316D01*
Y29072D01*
D02*
G37*
G36*
X14593Y28622D02*
X14597Y28572D01*
X14642Y28572D01*
X14633Y28568D01*
X14624Y28557D01*
X14617Y28538D01*
X14611Y28512D01*
X14605Y28478D01*
X14604Y28467D01*
X14611Y28376D01*
X14617Y28350D01*
X14624Y28331D01*
X14633Y28320D01*
X14642Y28316D01*
X14595Y28316D01*
X14593Y28266D01*
X14593Y28194D01*
X14363D01*
X14362Y28266D01*
X14359Y28314D01*
X14289Y28313D01*
X14303Y28317D01*
X14316Y28328D01*
X14327Y28347D01*
X14336Y28374D01*
X14344Y28409D01*
X14350Y28444D01*
X14344Y28479D01*
X14336Y28514D01*
X14327Y28541D01*
X14316Y28560D01*
X14303Y28571D01*
X14289Y28575D01*
X14360Y28574D01*
X14362Y28622D01*
X14363Y28694D01*
X14593D01*
X14593Y28622D01*
D02*
G37*
G36*
X20298Y28815D02*
X20315Y28813D01*
X20574Y28810D01*
X20867Y28809D01*
Y28579D01*
X20292Y28572D01*
Y28816D01*
X20298Y28815D01*
D02*
G37*
G36*
Y28315D02*
X20315Y28313D01*
X20574Y28310D01*
X20867Y28309D01*
Y28079D01*
X20292Y28072D01*
Y28316D01*
X20298Y28315D01*
D02*
G37*
G36*
X13298Y28072D02*
X13292Y28073D01*
X13275Y28075D01*
X13016Y28078D01*
X12723Y28079D01*
Y28309D01*
X13298Y28316D01*
Y28072D01*
D02*
G37*
G36*
X20298Y27815D02*
X20315Y27813D01*
X20574Y27810D01*
X20867Y27809D01*
Y27579D01*
X20292Y27572D01*
Y27816D01*
X20298Y27815D01*
D02*
G37*
G36*
X39856Y27413D02*
X39764Y27492D01*
X39654Y27563D01*
X39527Y27625D01*
X39382Y27679D01*
X39220Y27725D01*
X39040Y27762D01*
X38843Y27792D01*
X38395Y27825D01*
X38145Y27829D01*
Y28059D01*
X38395Y28063D01*
X38843Y28096D01*
X39040Y28126D01*
X39220Y28163D01*
X39382Y28209D01*
X39527Y28263D01*
X39654Y28325D01*
X39764Y28396D01*
X39856Y28475D01*
Y27413D01*
D02*
G37*
G36*
X13298Y27072D02*
X13292Y27073D01*
X13275Y27075D01*
X13016Y27078D01*
X12723Y27079D01*
Y27309D01*
X13298Y27316D01*
Y27072D01*
D02*
G37*
G36*
X20298Y27309D02*
X20315Y27302D01*
X20344Y27296D01*
X20384Y27291D01*
X20499Y27283D01*
X20867Y27277D01*
Y27047D01*
X20292Y27072D01*
Y27316D01*
X20298Y27309D01*
D02*
G37*
G36*
X13298Y26572D02*
X13292Y26573D01*
X13275Y26575D01*
X13016Y26578D01*
X12723Y26579D01*
Y26809D01*
X13298Y26816D01*
Y26572D01*
D02*
G37*
G36*
X20298Y26812D02*
X20315Y26808D01*
X20344Y26804D01*
X20436Y26799D01*
X20867Y26793D01*
Y26563D01*
X20292Y26572D01*
Y26816D01*
X20298Y26812D01*
D02*
G37*
G36*
X8343Y26773D02*
X8273Y26701D01*
X8064Y26466D01*
X8031Y26420D01*
X8005Y26380D01*
X7986Y26344D01*
X7975Y26314D01*
X7971Y26289D01*
X7696Y26564D01*
X7721Y26568D01*
X7752Y26579D01*
X7787Y26597D01*
X7828Y26624D01*
X7874Y26657D01*
X7981Y26746D01*
X8109Y26865D01*
X8181Y26936D01*
X8343Y26773D01*
D02*
G37*
G36*
X23718Y26770D02*
X23953Y26562D01*
X23999Y26529D01*
X24039Y26503D01*
X24075Y26484D01*
X24105Y26473D01*
X24130Y26469D01*
X23855Y26194D01*
X23851Y26219D01*
X23840Y26249D01*
X23822Y26285D01*
X23795Y26325D01*
X23762Y26371D01*
X23673Y26478D01*
X23554Y26606D01*
X23483Y26678D01*
X23646Y26841D01*
X23718Y26770D01*
D02*
G37*
G36*
X7502Y26094D02*
X7482Y26110D01*
X7452Y26123D01*
X7414Y26135D01*
X7367Y26145D01*
X7311Y26154D01*
X7172Y26167D01*
X6997Y26173D01*
X6897Y26174D01*
Y26404D01*
X6997Y26405D01*
X7311Y26424D01*
X7367Y26433D01*
X7414Y26443D01*
X7452Y26455D01*
X7482Y26468D01*
X7502Y26484D01*
Y26094D01*
D02*
G37*
G36*
X13298Y26072D02*
X13294Y26073D01*
X13280Y26075D01*
X13228Y26076D01*
X12859Y26079D01*
Y26309D01*
X13298Y26316D01*
Y26072D01*
D02*
G37*
G36*
X20258Y26229D02*
X20241Y26205D01*
X20239Y26171D01*
X20252Y26127D01*
X20278Y26074D01*
X20319Y26012D01*
X20374Y25939D01*
X20528Y25766D01*
X20627Y25665D01*
X20301D01*
X20212Y25752D01*
X19976Y25952D01*
X19909Y25998D01*
X19846Y26034D01*
X19789Y26059D01*
X19738Y26075D01*
X19692Y26080D01*
X19651Y26075D01*
X20289Y26244D01*
X20258Y26229D01*
D02*
G37*
G36*
X10172Y25503D02*
X10101Y25431D01*
X9893Y25196D01*
X9860Y25150D01*
X9833Y25110D01*
X9815Y25074D01*
X9804Y25044D01*
X9800Y25019D01*
X9525Y25294D01*
X9550Y25298D01*
X9580Y25309D01*
X9616Y25327D01*
X9656Y25354D01*
X9702Y25387D01*
X9809Y25476D01*
X9937Y25595D01*
X10009Y25666D01*
X10172Y25503D01*
D02*
G37*
G36*
X6594Y25354D02*
X6608Y25169D01*
X6620Y25094D01*
X6635Y25030D01*
X6654Y24978D01*
X6677Y24938D01*
X6702Y24909D01*
X6732Y24892D01*
X6765Y24886D01*
X6189D01*
X6222Y24892D01*
X6252Y24909D01*
X6277Y24938D01*
X6300Y24978D01*
X6319Y25030D01*
X6334Y25094D01*
X6346Y25169D01*
X6355Y25256D01*
X6362Y25464D01*
X6592D01*
X6594Y25354D01*
D02*
G37*
G36*
X39856Y24873D02*
X39764Y24952D01*
X39654Y25023D01*
X39527Y25085D01*
X39382Y25139D01*
X39220Y25185D01*
X39040Y25222D01*
X38843Y25252D01*
X38395Y25285D01*
X38145Y25289D01*
Y25519D01*
X38395Y25523D01*
X38843Y25556D01*
X39040Y25586D01*
X39220Y25623D01*
X39382Y25669D01*
X39527Y25723D01*
X39654Y25785D01*
X39764Y25856D01*
X39856Y25935D01*
Y24873D01*
D02*
G37*
G36*
X21324Y24843D02*
X21344Y24535D01*
X21350Y24510D01*
X21357Y24493D01*
X21364Y24484D01*
X21054D01*
X21061Y24493D01*
X21068Y24510D01*
X21074Y24535D01*
X21079Y24567D01*
X21088Y24654D01*
X21094Y24843D01*
X21094Y24921D01*
X21324D01*
X21324Y24843D01*
D02*
G37*
G36*
X9502Y24745D02*
X9483Y24743D01*
X9460Y24735D01*
X9431Y24719D01*
X9398Y24698D01*
X9360Y24670D01*
X9270Y24593D01*
X9098Y24430D01*
X8936Y24592D01*
X8997Y24654D01*
X9204Y24892D01*
X9225Y24925D01*
X9241Y24954D01*
X9249Y24977D01*
X9251Y24996D01*
X9502Y24745D01*
D02*
G37*
G36*
X8255Y24766D02*
X8272Y24736D01*
X8301Y24711D01*
X8341Y24688D01*
X8393Y24669D01*
X8457Y24654D01*
X8532Y24642D01*
X8619Y24633D01*
X8827Y24626D01*
Y24396D01*
X8717Y24394D01*
X8532Y24380D01*
X8457Y24368D01*
X8393Y24353D01*
X8341Y24334D01*
X8301Y24311D01*
X8272Y24286D01*
X8255Y24256D01*
X8249Y24223D01*
Y24799D01*
X8255Y24766D01*
D02*
G37*
G36*
X12181Y24575D02*
X12200Y24262D01*
X12209Y24205D01*
X12219Y24158D01*
X12231Y24120D01*
X12244Y24091D01*
X12260Y24070D01*
X11870D01*
X11886Y24091D01*
X11899Y24120D01*
X11911Y24158D01*
X11921Y24205D01*
X11930Y24262D01*
X11943Y24400D01*
X11949Y24575D01*
X11950Y24676D01*
X12180D01*
X12181Y24575D01*
D02*
G37*
G36*
X18666Y24443D02*
X18664Y24431D01*
X18663Y24384D01*
X18660Y24051D01*
X18430D01*
X18423Y24447D01*
X18667D01*
X18666Y24443D01*
D02*
G37*
G36*
X18166Y24441D02*
X18164Y24424D01*
X18161Y24165D01*
X18160Y23872D01*
X17930D01*
X17923Y24447D01*
X18167D01*
X18166Y24441D01*
D02*
G37*
G36*
X17666D02*
X17664Y24424D01*
X17661Y24165D01*
X17660Y23872D01*
X17430D01*
X17423Y24447D01*
X17667D01*
X17666Y24441D01*
D02*
G37*
G36*
X17163D02*
X17159Y24424D01*
X17155Y24395D01*
X17150Y24303D01*
X17144Y23872D01*
X16914D01*
X16923Y24447D01*
X17167D01*
X17163Y24441D01*
D02*
G37*
G36*
X16666D02*
X16664Y24424D01*
X16661Y24165D01*
X16660Y23872D01*
X16430D01*
X16423Y24447D01*
X16667D01*
X16666Y24441D01*
D02*
G37*
G36*
X16166D02*
X16164Y24424D01*
X16161Y24165D01*
X16160Y23872D01*
X15930D01*
X15923Y24447D01*
X16167D01*
X16166Y24441D01*
D02*
G37*
G36*
X15666D02*
X15664Y24424D01*
X15661Y24165D01*
X15660Y23872D01*
X15430D01*
X15423Y24447D01*
X15667D01*
X15666Y24441D01*
D02*
G37*
G36*
X15166D02*
X15164Y24424D01*
X15161Y24165D01*
X15160Y23872D01*
X14930D01*
X14923Y24447D01*
X15167D01*
X15166Y24441D01*
D02*
G37*
G36*
X8129Y24127D02*
X8099Y24110D01*
X8074Y24081D01*
X8051Y24041D01*
X8032Y23989D01*
X8017Y23926D01*
X8005Y23851D01*
X7996Y23765D01*
X7989Y23558D01*
X7759D01*
X7757Y23667D01*
X7743Y23851D01*
X7731Y23926D01*
X7716Y23989D01*
X7697Y24041D01*
X7674Y24081D01*
X7649Y24110D01*
X7619Y24127D01*
X7587Y24133D01*
X8161D01*
X8129Y24127D01*
D02*
G37*
G36*
X19578Y23182D02*
X19813Y22974D01*
X19859Y22941D01*
X19899Y22914D01*
X19935Y22896D01*
X19965Y22885D01*
X19990Y22881D01*
X19715Y22606D01*
X19711Y22631D01*
X19700Y22661D01*
X19682Y22697D01*
X19655Y22737D01*
X19622Y22783D01*
X19533Y22890D01*
X19414Y23018D01*
X19343Y23090D01*
X19506Y23253D01*
X19578Y23182D01*
D02*
G37*
G36*
X16126Y22771D02*
X16066Y22710D01*
X15864Y22479D01*
X15843Y22447D01*
X15828Y22420D01*
X15820Y22398D01*
X15818Y22381D01*
X15574Y22625D01*
X15591Y22627D01*
X15613Y22635D01*
X15640Y22650D01*
X15672Y22671D01*
X15708Y22698D01*
X15796Y22773D01*
X15964Y22933D01*
X16126Y22771D01*
D02*
G37*
G36*
X39856Y22333D02*
X39764Y22412D01*
X39654Y22483D01*
X39527Y22545D01*
X39382Y22599D01*
X39220Y22645D01*
X39040Y22682D01*
X38843Y22712D01*
X38395Y22745D01*
X38145Y22749D01*
Y22979D01*
X38395Y22983D01*
X38843Y23016D01*
X39040Y23046D01*
X39220Y23083D01*
X39382Y23129D01*
X39527Y23183D01*
X39654Y23245D01*
X39764Y23316D01*
X39856Y23395D01*
Y22333D01*
D02*
G37*
G36*
X14550Y22141D02*
X14480Y22069D01*
X14271Y21834D01*
X14238Y21788D01*
X14212Y21747D01*
X14193Y21712D01*
X14182Y21681D01*
X14178Y21656D01*
X13903Y21932D01*
X13928Y21935D01*
X13959Y21946D01*
X13994Y21965D01*
X14035Y21991D01*
X14081Y22025D01*
X14188Y22114D01*
X14316Y22233D01*
X14388Y22303D01*
X14550Y22141D01*
D02*
G37*
G36*
X22694Y21642D02*
X22723Y21629D01*
X22761Y21617D01*
X22808Y21607D01*
X22865Y21598D01*
X23003Y21585D01*
X23178Y21579D01*
X23279Y21578D01*
X23279Y21348D01*
X23178Y21347D01*
X22865Y21328D01*
X22808Y21319D01*
X22761Y21309D01*
X22723Y21297D01*
X22694Y21284D01*
X22673Y21268D01*
Y21658D01*
X22694Y21642D01*
D02*
G37*
G36*
X7990Y21672D02*
X8011Y21413D01*
X8023Y21350D01*
X8038Y21298D01*
X8056Y21258D01*
X8076Y21229D01*
X8099Y21212D01*
X8125Y21206D01*
X7587Y21203D01*
X7619Y21209D01*
X7649Y21226D01*
X7674Y21255D01*
X7697Y21296D01*
X7716Y21348D01*
X7731Y21411D01*
X7743Y21487D01*
X7752Y21573D01*
X7759Y21781D01*
X7989D01*
X7990Y21672D01*
D02*
G37*
G36*
X16141Y21439D02*
X16070Y21367D01*
X15862Y21132D01*
X15829Y21086D01*
X15802Y21046D01*
X15784Y21010D01*
X15773Y20980D01*
X15769Y20955D01*
X15494Y21230D01*
X15519Y21234D01*
X15549Y21245D01*
X15585Y21264D01*
X15625Y21290D01*
X15671Y21323D01*
X15778Y21412D01*
X15906Y21531D01*
X15978Y21602D01*
X16141Y21439D01*
D02*
G37*
G36*
X17145Y21400D02*
X17164Y21087D01*
X17173Y21030D01*
X17183Y20983D01*
X17195Y20945D01*
X17208Y20916D01*
X17224Y20895D01*
X16834D01*
X16850Y20916D01*
X16863Y20945D01*
X16875Y20983D01*
X16885Y21030D01*
X16894Y21087D01*
X16907Y21225D01*
X16913Y21400D01*
X16914Y21501D01*
X17144D01*
X17145Y21400D01*
D02*
G37*
G36*
X19004Y21128D02*
X18943Y21066D01*
X18736Y20828D01*
X18715Y20795D01*
X18699Y20766D01*
X18691Y20743D01*
X18689Y20724D01*
X18438Y20975D01*
X18457Y20977D01*
X18480Y20985D01*
X18509Y21001D01*
X18542Y21022D01*
X18580Y21050D01*
X18670Y21127D01*
X18842Y21290D01*
X19004Y21128D01*
D02*
G37*
G36*
X5975Y20541D02*
X5969Y20573D01*
X5952Y20603D01*
X5923Y20628D01*
X5883Y20651D01*
X5831Y20670D01*
X5767Y20685D01*
X5692Y20697D01*
X5605Y20706D01*
X5397Y20713D01*
Y20943D01*
X5507Y20945D01*
X5692Y20959D01*
X5767Y20971D01*
X5831Y20986D01*
X5883Y21005D01*
X5923Y21028D01*
X5952Y21053D01*
X5969Y21083D01*
X5975Y21115D01*
Y20541D01*
D02*
G37*
G36*
X17205Y20484D02*
X17192Y20457D01*
X17181Y20422D01*
X17171Y20379D01*
X17163Y20328D01*
X17151Y20201D01*
X17145Y20042D01*
X17144Y19950D01*
X16914D01*
X16913Y20042D01*
X16895Y20328D01*
X16887Y20379D01*
X16877Y20422D01*
X16866Y20457D01*
X16853Y20484D01*
X16839Y20503D01*
X17219D01*
X17205Y20484D01*
D02*
G37*
G36*
X6605Y20444D02*
X6575Y20427D01*
X6550Y20398D01*
X6527Y20358D01*
X6508Y20306D01*
X6493Y20243D01*
X6481Y20168D01*
X6472Y20082D01*
X6465Y19875D01*
X6235D01*
X6233Y19984D01*
X6219Y20168D01*
X6207Y20243D01*
X6192Y20306D01*
X6173Y20358D01*
X6150Y20398D01*
X6125Y20427D01*
X6095Y20444D01*
X6062Y20450D01*
X6637D01*
X6605Y20444D01*
D02*
G37*
G36*
X20580Y17874D02*
X20574Y17906D01*
X20557Y17936D01*
X20528Y17961D01*
X20488Y17984D01*
X20436Y18003D01*
X20372Y18018D01*
X20297Y18030D01*
X20210Y18039D01*
X20002Y18046D01*
Y18276D01*
X20112Y18278D01*
X20297Y18292D01*
X20372Y18304D01*
X20436Y18319D01*
X20488Y18338D01*
X20528Y18361D01*
X20557Y18386D01*
X20574Y18416D01*
X20580Y18448D01*
Y17874D01*
D02*
G37*
G36*
X22607Y17777D02*
X22577Y17760D01*
X22552Y17731D01*
X22529Y17691D01*
X22510Y17639D01*
X22495Y17576D01*
X22483Y17501D01*
X22474Y17415D01*
X22467Y17208D01*
X22462D01*
X22450Y16849D01*
X22106Y16939D01*
X22131Y16956D01*
X22153Y16982D01*
X22173Y17017D01*
X22190Y17061D01*
X22204Y17115D01*
X22216Y17177D01*
X22225Y17248D01*
X22232Y17360D01*
X22221Y17501D01*
X22209Y17576D01*
X22194Y17639D01*
X22175Y17691D01*
X22152Y17731D01*
X22127Y17760D01*
X22097Y17777D01*
X22065Y17783D01*
X22639D01*
X22607Y17777D01*
D02*
G37*
G36*
X22031Y16496D02*
X22010Y16512D01*
X21981Y16525D01*
X21943Y16537D01*
X21896Y16547D01*
X21839Y16556D01*
X21701Y16569D01*
X21526Y16575D01*
X21425Y16576D01*
Y16806D01*
X21526Y16807D01*
X21839Y16826D01*
X21896Y16835D01*
X21943Y16845D01*
X21981Y16857D01*
X22010Y16870D01*
X22031Y16886D01*
Y16496D01*
D02*
G37*
G36*
X16700Y16266D02*
X16714Y16081D01*
X16726Y16006D01*
X16741Y15942D01*
X16760Y15890D01*
X16783Y15850D01*
X16808Y15821D01*
X16838Y15804D01*
X16871Y15798D01*
X16295D01*
X16328Y15804D01*
X16358Y15821D01*
X16383Y15850D01*
X16406Y15890D01*
X16425Y15942D01*
X16440Y16006D01*
X16452Y16081D01*
X16461Y16168D01*
X16468Y16376D01*
X16698D01*
X16700Y16266D01*
D02*
G37*
G36*
X42052Y16747D02*
X41878Y16568D01*
X41585Y16227D01*
X41466Y16067D01*
X41365Y15914D01*
X41283Y15766D01*
X41219Y15626D01*
X41173Y15492D01*
X41145Y15364D01*
X41136Y15244D01*
X40386Y15994D01*
X40506Y16003D01*
X40634Y16031D01*
X40768Y16077D01*
X40908Y16141D01*
X41056Y16223D01*
X41209Y16324D01*
X41369Y16443D01*
X41710Y16736D01*
X41889Y16910D01*
X42052Y16747D01*
D02*
G37*
G36*
X27930Y15576D02*
X27944Y15392D01*
X27956Y15317D01*
X27971Y15254D01*
X27990Y15202D01*
X28013Y15162D01*
X28038Y15133D01*
X28068Y15116D01*
X28101Y15110D01*
X27525D01*
X27558Y15116D01*
X27588Y15133D01*
X27613Y15162D01*
X27636Y15202D01*
X27655Y15254D01*
X27670Y15317D01*
X27682Y15392D01*
X27691Y15478D01*
X27698Y15685D01*
X27928D01*
X27930Y15576D01*
D02*
G37*
G36*
X21072Y15575D02*
X21086Y15390D01*
X21098Y15315D01*
X21113Y15251D01*
X21132Y15199D01*
X21155Y15159D01*
X21180Y15130D01*
X21210Y15113D01*
X21243Y15107D01*
X20667D01*
X20700Y15113D01*
X20730Y15130D01*
X20755Y15159D01*
X20778Y15199D01*
X20797Y15251D01*
X20812Y15315D01*
X20824Y15390D01*
X20833Y15477D01*
X20840Y15685D01*
X21070D01*
X21072Y15575D01*
D02*
G37*
G36*
X25267Y15406D02*
X25284Y15289D01*
X25313Y15185D01*
X25353Y15095D01*
X25405Y15019D01*
X25468Y14957D01*
X25543Y14909D01*
X25629Y14875D01*
X25727Y14854D01*
X25836Y14847D01*
X25146Y14617D01*
X24456Y14847D01*
X24565Y14854D01*
X24663Y14875D01*
X24749Y14909D01*
X24824Y14957D01*
X24887Y15019D01*
X24939Y15095D01*
X24979Y15185D01*
X25008Y15289D01*
X25025Y15406D01*
X25031Y15537D01*
X25261D01*
X25267Y15406D01*
D02*
G37*
G36*
X27438Y14444D02*
X27432Y14477D01*
X27415Y14507D01*
X27386Y14532D01*
X27346Y14555D01*
X27294Y14574D01*
X27230Y14589D01*
X27155Y14601D01*
X27068Y14610D01*
X26860Y14617D01*
Y14847D01*
X26970Y14849D01*
X27155Y14863D01*
X27230Y14875D01*
X27294Y14890D01*
X27346Y14909D01*
X27386Y14932D01*
X27415Y14957D01*
X27432Y14987D01*
X27438Y15019D01*
Y14444D01*
D02*
G37*
G36*
X22733Y14987D02*
X22750Y14957D01*
X22779Y14932D01*
X22819Y14909D01*
X22871Y14890D01*
X22935Y14875D01*
X23010Y14863D01*
X23097Y14854D01*
X23305Y14847D01*
Y14617D01*
X23195Y14615D01*
X23010Y14601D01*
X22935Y14589D01*
X22871Y14574D01*
X22819Y14555D01*
X22779Y14532D01*
X22750Y14507D01*
X22733Y14477D01*
X22727Y14444D01*
Y15019D01*
X22733Y14987D01*
D02*
G37*
G36*
X6920Y14245D02*
X6937Y14242D01*
X6966Y14239D01*
X7121Y14232D01*
X7489Y14229D01*
Y13999D01*
X6914Y14005D01*
Y14249D01*
X6920Y14245D01*
D02*
G37*
G36*
X29465Y14351D02*
X29435Y14334D01*
X29410Y14305D01*
X29387Y14265D01*
X29368Y14213D01*
X29353Y14149D01*
X29341Y14074D01*
X29332Y13987D01*
X29325Y13779D01*
X29095D01*
X29093Y13889D01*
X29079Y14074D01*
X29067Y14149D01*
X29052Y14213D01*
X29033Y14265D01*
X29010Y14305D01*
X28985Y14334D01*
X28955Y14351D01*
X28923Y14357D01*
X29497D01*
X29465Y14351D01*
D02*
G37*
G36*
X22607Y14348D02*
X22577Y14331D01*
X22552Y14302D01*
X22529Y14262D01*
X22510Y14210D01*
X22495Y14147D01*
X22483Y14072D01*
X22474Y13986D01*
X22467Y13779D01*
X22237D01*
X22235Y13888D01*
X22221Y14072D01*
X22209Y14147D01*
X22194Y14210D01*
X22175Y14262D01*
X22152Y14302D01*
X22127Y14331D01*
X22097Y14348D01*
X22065Y14354D01*
X22639D01*
X22607Y14348D01*
D02*
G37*
G36*
X32883Y13416D02*
X32897Y13231D01*
X32909Y13156D01*
X32924Y13092D01*
X32943Y13040D01*
X32966Y13000D01*
X32991Y12971D01*
X33021Y12954D01*
X33054Y12948D01*
X32479D01*
X32511Y12954D01*
X32541Y12971D01*
X32566Y13000D01*
X32589Y13040D01*
X32608Y13092D01*
X32623Y13156D01*
X32635Y13231D01*
X32644Y13318D01*
X32651Y13526D01*
X32881D01*
X32883Y13416D01*
D02*
G37*
G36*
X22474Y13628D02*
X22495Y13511D01*
X22529Y13407D01*
X22577Y13317D01*
X22639Y13241D01*
X22715Y13179D01*
X22805Y13131D01*
X22907Y13097D01*
X22912Y13098D01*
X22959Y13108D01*
X22997Y13120D01*
X23026Y13133D01*
X23047Y13149D01*
Y13075D01*
X23157Y13069D01*
Y12839D01*
X23047Y12833D01*
Y12759D01*
X23026Y12775D01*
X22997Y12788D01*
X22959Y12800D01*
X22912Y12810D01*
X22907Y12811D01*
X22805Y12777D01*
X22715Y12729D01*
X22639Y12667D01*
X22577Y12591D01*
X22529Y12501D01*
X22495Y12397D01*
X22474Y12280D01*
X22467Y12149D01*
X22237D01*
X22230Y12280D01*
X22209Y12397D01*
X22175Y12501D01*
X22127Y12591D01*
X22065Y12667D01*
X21989Y12729D01*
X21899Y12777D01*
X21795Y12811D01*
X21678Y12832D01*
X21547Y12839D01*
Y13069D01*
X21678Y13076D01*
X21795Y13097D01*
X21899Y13131D01*
X21989Y13179D01*
X22065Y13241D01*
X22127Y13317D01*
X22175Y13407D01*
X22209Y13511D01*
X22230Y13628D01*
X22237Y13759D01*
X22467D01*
X22474Y13628D01*
D02*
G37*
G36*
X17361Y13209D02*
X17378Y13179D01*
X17407Y13154D01*
X17447Y13131D01*
X17499Y13112D01*
X17562Y13097D01*
X17637Y13085D01*
X17723Y13076D01*
X17930Y13069D01*
Y12839D01*
X17821Y12837D01*
X17637Y12823D01*
X17562Y12811D01*
X17499Y12796D01*
X17447Y12777D01*
X17407Y12754D01*
X17378Y12729D01*
X17361Y12699D01*
X17355Y12667D01*
Y13241D01*
X17361Y13209D01*
D02*
G37*
G36*
X34544Y12828D02*
X34561Y12798D01*
X34590Y12773D01*
X34630Y12750D01*
X34682Y12731D01*
X34746Y12716D01*
X34821Y12704D01*
X34908Y12695D01*
X35116Y12688D01*
Y12458D01*
X35006Y12456D01*
X34821Y12442D01*
X34746Y12430D01*
X34682Y12415D01*
X34630Y12396D01*
X34590Y12373D01*
X34561Y12348D01*
X34544Y12318D01*
X34538Y12285D01*
Y12861D01*
X34544Y12828D01*
D02*
G37*
G36*
X33021Y12189D02*
X32991Y12172D01*
X32966Y12143D01*
X32943Y12103D01*
X32924Y12051D01*
X32909Y11988D01*
X32897Y11913D01*
X32888Y11827D01*
X32881Y11620D01*
X32651D01*
X32649Y11729D01*
X32635Y11913D01*
X32623Y11988D01*
X32608Y12051D01*
X32589Y12103D01*
X32566Y12143D01*
X32541Y12172D01*
X32511Y12189D01*
X32479Y12195D01*
X33054D01*
X33021Y12189D01*
D02*
G37*
G36*
X29327Y11893D02*
X29341Y11709D01*
X29353Y11634D01*
X29368Y11571D01*
X29387Y11519D01*
X29410Y11479D01*
X29435Y11450D01*
X29465Y11433D01*
X29497Y11427D01*
X28923D01*
X28955Y11433D01*
X28985Y11450D01*
X29010Y11479D01*
X29033Y11519D01*
X29052Y11571D01*
X29067Y11634D01*
X29079Y11709D01*
X29088Y11795D01*
X29095Y12002D01*
X29325D01*
X29327Y11893D01*
D02*
G37*
G36*
X22469Y11892D02*
X22483Y11707D01*
X22495Y11632D01*
X22510Y11568D01*
X22529Y11516D01*
X22552Y11476D01*
X22577Y11447D01*
X22607Y11430D01*
X22639Y11424D01*
X22065D01*
X22097Y11430D01*
X22127Y11447D01*
X22152Y11476D01*
X22175Y11516D01*
X22194Y11568D01*
X22209Y11632D01*
X22221Y11707D01*
X22230Y11794D01*
X22237Y12002D01*
X22467D01*
X22469Y11892D01*
D02*
G37*
G36*
X6920Y11645D02*
X6937Y11642D01*
X6966Y11639D01*
X7121Y11632D01*
X7489Y11629D01*
Y11399D01*
X6914Y11405D01*
Y11649D01*
X6920Y11645D01*
D02*
G37*
G36*
X20580Y10762D02*
X20574Y10794D01*
X20557Y10824D01*
X20528Y10849D01*
X20488Y10872D01*
X20436Y10891D01*
X20372Y10906D01*
X20297Y10918D01*
X20210Y10927D01*
X20002Y10934D01*
Y11164D01*
X20112Y11166D01*
X20297Y11180D01*
X20372Y11192D01*
X20436Y11207D01*
X20488Y11226D01*
X20528Y11249D01*
X20557Y11274D01*
X20574Y11304D01*
X20580Y11337D01*
Y10762D01*
D02*
G37*
G36*
X28068Y10668D02*
X28038Y10651D01*
X28013Y10622D01*
X27990Y10582D01*
X27971Y10530D01*
X27956Y10466D01*
X27944Y10391D01*
X27935Y10304D01*
X27928Y10096D01*
X27698D01*
X27696Y10206D01*
X27682Y10391D01*
X27670Y10466D01*
X27655Y10530D01*
X27636Y10582D01*
X27613Y10622D01*
X27588Y10651D01*
X27558Y10668D01*
X27525Y10674D01*
X28101D01*
X28068Y10668D01*
D02*
G37*
G36*
X21210Y10665D02*
X21180Y10648D01*
X21155Y10619D01*
X21132Y10579D01*
X21113Y10527D01*
X21098Y10464D01*
X21086Y10389D01*
X21077Y10303D01*
X21070Y10096D01*
X20840D01*
X20838Y10205D01*
X20824Y10389D01*
X20812Y10464D01*
X20797Y10527D01*
X20778Y10579D01*
X20755Y10619D01*
X20730Y10648D01*
X20700Y10665D01*
X20667Y10671D01*
X21243D01*
X21210Y10665D01*
D02*
G37*
G36*
X17361Y10901D02*
X17378Y10871D01*
X17407Y10846D01*
X17447Y10823D01*
X17499Y10804D01*
X17562Y10789D01*
X17637Y10777D01*
X17723Y10768D01*
X17930Y10761D01*
Y10675D01*
X18188Y10761D01*
X18878Y10531D01*
X18769Y10524D01*
X18671Y10503D01*
X18585Y10469D01*
X18510Y10421D01*
X18447Y10358D01*
X18395Y10283D01*
X18355Y10193D01*
X18326Y10089D01*
X18309Y9972D01*
X18303Y9841D01*
X18073D01*
X18067Y9972D01*
X18050Y10089D01*
X18021Y10193D01*
X17981Y10283D01*
X17929Y10358D01*
X17866Y10421D01*
X17791Y10469D01*
X17705Y10503D01*
X17645Y10516D01*
X17637Y10515D01*
X17562Y10503D01*
X17499Y10488D01*
X17447Y10469D01*
X17407Y10446D01*
X17378Y10421D01*
X17361Y10391D01*
X17355Y10358D01*
Y10933D01*
X17361Y10901D01*
D02*
G37*
G36*
X16838Y10104D02*
X16808Y10087D01*
X16783Y10058D01*
X16760Y10018D01*
X16741Y9966D01*
X16726Y9902D01*
X16714Y9827D01*
X16705Y9740D01*
X16698Y9532D01*
X16468D01*
X16466Y9642D01*
X16452Y9827D01*
X16440Y9902D01*
X16425Y9966D01*
X16406Y10018D01*
X16383Y10058D01*
X16358Y10087D01*
X16328Y10104D01*
X16295Y10110D01*
X16871D01*
X16838Y10104D01*
D02*
G37*
G36*
X27934Y9945D02*
X27951Y9828D01*
X27980Y9724D01*
X28020Y9634D01*
X28072Y9559D01*
X28135Y9496D01*
X28210Y9448D01*
X28296Y9414D01*
X28394Y9393D01*
X28503Y9386D01*
X27813Y9156D01*
X27123Y9386D01*
X27232Y9393D01*
X27330Y9414D01*
X27416Y9448D01*
X27491Y9496D01*
X27554Y9559D01*
X27606Y9634D01*
X27646Y9724D01*
X27675Y9828D01*
X27692Y9945D01*
X27698Y10076D01*
X27928D01*
X27934Y9945D01*
D02*
G37*
G36*
X32883Y9606D02*
X32897Y9421D01*
X32909Y9346D01*
X32924Y9282D01*
X32943Y9230D01*
X32966Y9190D01*
X32991Y9161D01*
X33021Y9144D01*
X33054Y9138D01*
X32479D01*
X32511Y9144D01*
X32541Y9161D01*
X32566Y9190D01*
X32589Y9230D01*
X32608Y9282D01*
X32623Y9346D01*
X32635Y9421D01*
X32644Y9508D01*
X32651Y9716D01*
X32881D01*
X32883Y9606D01*
D02*
G37*
G36*
X37965Y9401D02*
X37977Y9398D01*
X37997Y9395D01*
X38057Y9391D01*
X38260Y9386D01*
X38328Y9386D01*
Y9156D01*
X37959Y9137D01*
Y9405D01*
X37965Y9401D01*
D02*
G37*
G36*
X23456Y9450D02*
X23485Y9437D01*
X23523Y9425D01*
X23570Y9415D01*
X23627Y9406D01*
X23765Y9393D01*
X23940Y9387D01*
X24041Y9386D01*
Y9156D01*
X23940Y9155D01*
X23627Y9136D01*
X23570Y9127D01*
X23523Y9117D01*
X23485Y9105D01*
X23456Y9092D01*
X23435Y9076D01*
Y9466D01*
X23456Y9450D01*
D02*
G37*
G36*
X23047Y9076D02*
X23026Y9092D01*
X22997Y9105D01*
X22959Y9117D01*
X22912Y9127D01*
X22855Y9136D01*
X22717Y9149D01*
X22542Y9155D01*
X22441Y9156D01*
Y9386D01*
X22542Y9387D01*
X22855Y9406D01*
X22912Y9415D01*
X22959Y9425D01*
X22997Y9437D01*
X23026Y9450D01*
X23047Y9466D01*
Y9076D01*
D02*
G37*
G36*
X40446Y9585D02*
X40835D01*
X40819Y9564D01*
X40806Y9535D01*
X40794Y9497D01*
X40784Y9450D01*
X40775Y9393D01*
X40762Y9255D01*
X40756Y9080D01*
X40755Y8979D01*
X40525D01*
X40524Y9080D01*
X40505Y9393D01*
X40496Y9450D01*
X40486Y9497D01*
X40474Y9535D01*
X40461Y9564D01*
X40446Y9585D01*
X40425Y9600D01*
X40396Y9613D01*
X40358Y9625D01*
X40311Y9635D01*
X40254Y9644D01*
X40116Y9657D01*
X39941Y9663D01*
X39840Y9664D01*
Y9894D01*
X39941Y9895D01*
X40254Y9914D01*
X40311Y9923D01*
X40358Y9933D01*
X40396Y9945D01*
X40425Y9958D01*
X40446Y9974D01*
Y9585D01*
D02*
G37*
G36*
X37696Y8997D02*
X37677Y8995D01*
X37654Y8987D01*
X37625Y8971D01*
X37592Y8950D01*
X37554Y8922D01*
X37464Y8845D01*
X37292Y8682D01*
X37130Y8844D01*
X37191Y8906D01*
X37398Y9144D01*
X37419Y9177D01*
X37435Y9206D01*
X37443Y9229D01*
X37445Y9248D01*
X37696Y8997D01*
D02*
G37*
G36*
X34544Y9018D02*
X34561Y8988D01*
X34590Y8963D01*
X34630Y8940D01*
X34682Y8921D01*
X34746Y8906D01*
X34821Y8894D01*
X34908Y8885D01*
X35116Y8878D01*
Y8648D01*
X35006Y8646D01*
X34821Y8632D01*
X34746Y8620D01*
X34682Y8605D01*
X34630Y8586D01*
X34590Y8563D01*
X34561Y8538D01*
X34544Y8508D01*
X34538Y8476D01*
Y9050D01*
X34544Y9018D01*
D02*
G37*
G36*
X39250Y8060D02*
X39006D01*
X39007Y8064D01*
X39009Y8076D01*
X39011Y8126D01*
X39013Y8471D01*
X39243D01*
X39250Y8060D01*
D02*
G37*
G36*
X40752Y7938D02*
X40504D01*
X40508Y7964D01*
X40515Y8041D01*
X40523Y8297D01*
X40525Y8578D01*
X40755Y8635D01*
X40752Y7938D01*
D02*
G37*
G36*
X33021Y8379D02*
X32991Y8362D01*
X32966Y8333D01*
X32943Y8293D01*
X32924Y8241D01*
X32909Y8178D01*
X32897Y8103D01*
X32888Y8017D01*
X32881Y7810D01*
X32651D01*
X32649Y7919D01*
X32635Y8103D01*
X32623Y8178D01*
X32608Y8241D01*
X32589Y8293D01*
X32566Y8333D01*
X32541Y8362D01*
X32511Y8379D01*
X32479Y8385D01*
X33054D01*
X33021Y8379D01*
D02*
G37*
G36*
X40244Y6566D02*
X40250D01*
X40249Y6560D01*
X40247Y6543D01*
X40246Y6477D01*
X40259Y6315D01*
X40271Y6240D01*
X40286Y6176D01*
X40305Y6124D01*
X40328Y6084D01*
X40353Y6055D01*
X40383Y6038D01*
X40416Y6032D01*
X40243D01*
X40243Y5991D01*
X40013D01*
X40013Y6032D01*
X39840D01*
X39873Y6038D01*
X39903Y6055D01*
X39928Y6084D01*
X39951Y6124D01*
X39970Y6176D01*
X39985Y6240D01*
X39997Y6315D01*
X40006Y6402D01*
X40008Y6445D01*
X40006Y6566D01*
X40012D01*
X40013Y6610D01*
X40243D01*
X40244Y6566D01*
D02*
G37*
G36*
X18305Y4895D02*
X18319Y4710D01*
X18331Y4635D01*
X18346Y4571D01*
X18365Y4519D01*
X18388Y4479D01*
X18413Y4450D01*
X18443Y4433D01*
X18476Y4427D01*
X17900D01*
X17933Y4433D01*
X17963Y4450D01*
X17988Y4479D01*
X18011Y4519D01*
X18030Y4571D01*
X18045Y4635D01*
X18057Y4710D01*
X18066Y4797D01*
X18073Y5005D01*
X18303D01*
X18305Y4895D01*
D02*
G37*
G36*
X40243Y5144D02*
X40416D01*
X40383Y5138D01*
X40353Y5121D01*
X40328Y5092D01*
X40305Y5052D01*
X40286Y5000D01*
X40271Y4936D01*
X40259Y4861D01*
X40250Y4774D01*
X40248Y4731D01*
X40250Y4612D01*
X40328Y4611D01*
X40628Y4613D01*
Y4383D01*
X40556Y4382D01*
X40506Y4379D01*
Y4309D01*
X40502Y4323D01*
X40491Y4336D01*
X40472Y4347D01*
X40446Y4356D01*
X40412Y4364D01*
X40377Y4370D01*
X40343Y4364D01*
X40308Y4356D01*
X40282Y4347D01*
X40262Y4336D01*
X40251Y4323D01*
X40247Y4309D01*
X40248Y4380D01*
X40200Y4382D01*
X40128Y4383D01*
Y4566D01*
X40013D01*
X40012Y4610D01*
X40006D01*
X40007Y4616D01*
X40009Y4633D01*
X40010Y4699D01*
X39997Y4861D01*
X39985Y4936D01*
X39970Y5000D01*
X39951Y5052D01*
X39928Y5092D01*
X39903Y5121D01*
X39873Y5138D01*
X39840Y5144D01*
X40013D01*
X40013Y5185D01*
X40243D01*
X40243Y5144D01*
D02*
G37*
G36*
X40249Y3110D02*
X40247Y3093D01*
X40244Y2834D01*
X40243Y2541D01*
X40013D01*
X40006Y3116D01*
X40250D01*
X40249Y3110D01*
D02*
G37*
G36*
X39249D02*
X39247Y3093D01*
X39244Y2834D01*
X39243Y2541D01*
X39013D01*
X39006Y3116D01*
X39250D01*
X39249Y3110D01*
D02*
G37*
D19*
X16583Y15254D02*
D03*
Y12954D02*
D03*
Y10654D02*
D03*
D20*
X9833Y12954D02*
D03*
D21*
X10694Y41910D02*
D03*
X20294D02*
D03*
D22*
X27117Y41163D02*
D03*
Y39863D02*
D03*
X29017D02*
D03*
Y41163D02*
D03*
D23*
X15045Y30769D02*
D03*
X15545D02*
D03*
X16045D02*
D03*
X16545D02*
D03*
X17045D02*
D03*
X17545D02*
D03*
X18045D02*
D03*
X18545D02*
D03*
Y25119D02*
D03*
X18045D02*
D03*
X17545D02*
D03*
X17045D02*
D03*
X16545D02*
D03*
X16045D02*
D03*
X15545D02*
D03*
X15045D02*
D03*
D24*
X19620Y29694D02*
D03*
Y29194D02*
D03*
Y28694D02*
D03*
Y28194D02*
D03*
Y27694D02*
D03*
Y27194D02*
D03*
Y26694D02*
D03*
Y26194D02*
D03*
X13970D02*
D03*
Y26694D02*
D03*
Y27194D02*
D03*
Y27694D02*
D03*
Y28194D02*
D03*
Y28694D02*
D03*
Y29194D02*
D03*
D25*
Y29694D02*
D03*
D26*
X2207Y8877D02*
D03*
Y16777D02*
D03*
D27*
X5667Y11527D02*
D03*
Y12177D02*
D03*
Y12827D02*
D03*
Y13477D02*
D03*
Y14127D02*
D03*
D28*
X29210Y14732D02*
D03*
X27813D02*
D03*
X27849Y11049D02*
D03*
X29224D02*
D03*
X22352D02*
D03*
X20955D02*
D03*
X22352Y14732D02*
D03*
X20955D02*
D03*
X32766Y8763D02*
D03*
X34163D02*
D03*
X32766Y12573D02*
D03*
X34163D02*
D03*
X33147Y31750D02*
D03*
X34544D02*
D03*
X20955Y18161D02*
D03*
X22352D02*
D03*
X11049Y35306D02*
D03*
X12446D02*
D03*
X16256Y35179D02*
D03*
X17653D02*
D03*
X6477Y24511D02*
D03*
X7874D02*
D03*
X7747Y20828D02*
D03*
X6350D02*
D03*
X8890Y31877D02*
D03*
X7493D02*
D03*
X28702Y33655D02*
D03*
X27305D02*
D03*
X24511Y37084D02*
D03*
X25908D02*
D03*
D29*
X39128Y3863D02*
D03*
X39628D02*
D03*
X40128D02*
D03*
X40628D02*
D03*
X40128Y7313D02*
D03*
X39628D02*
D03*
X39128D02*
D03*
D30*
X40628D02*
D03*
D31*
X39878Y5588D02*
D03*
D51*
X12446Y35306D02*
X14351D01*
X7874Y20828D02*
Y24511D01*
X9525Y25019D02*
X11200Y26694D01*
X9017Y24511D02*
X9525Y25019D01*
X16045Y30261D02*
X16545D01*
X14478Y28194D02*
Y28694D01*
X12065Y25400D02*
X12859Y26194D01*
X12065Y23876D02*
Y25400D01*
X12859Y26194D02*
X13970D01*
X11176Y30075D02*
Y30988D01*
X10287Y31877D02*
X11176Y30988D01*
X8890Y31877D02*
X10287D01*
X7493D02*
Y37277D01*
X10694Y40478D01*
Y41910D01*
X40128Y4498D02*
X40628D01*
X27813Y9271D02*
Y11049D01*
X17680Y35179D02*
Y36222D01*
X31496Y35077D02*
Y41529D01*
X30836Y34417D02*
X31496Y35077D01*
X30074Y33655D02*
X30836Y34417D01*
X28702Y33655D02*
X30074D01*
X22590Y29194D02*
X23880Y30484D01*
X19620Y29194D02*
X22590D01*
X26158Y27944D02*
X40386D01*
X25408Y28694D02*
X26158Y27944D01*
X19620Y28694D02*
X25408D01*
X23880Y30484D02*
X40386D01*
X18545Y31369D02*
X21082D01*
X18337Y32131D02*
X24511D01*
X8636Y29718D02*
X10160D01*
X4826Y25908D02*
X8636Y29718D01*
X4826Y21209D02*
Y25908D01*
X7874Y24511D02*
X9017D01*
X7696Y26289D02*
X9601Y28194D01*
X11176Y30075D02*
X12057Y29194D01*
X13970D01*
X4826Y21209D02*
X5207Y20828D01*
X6350D01*
X19558Y11049D02*
X20955D01*
X19155Y10646D02*
X19558Y11049D01*
X18188Y10646D02*
X19155D01*
X22225Y16691D02*
X22352Y16818D01*
Y18161D01*
X18542Y37084D02*
X24511D01*
X17680Y36222D02*
X18542Y37084D01*
X15045Y30769D02*
Y31691D01*
X12446Y34290D02*
X15045Y31691D01*
X12446Y34290D02*
Y35306D01*
X22352Y12954D02*
X23241D01*
X16583D02*
X22352D01*
Y11049D02*
Y12954D01*
Y14732D01*
X25146D01*
X27813Y16256D02*
X28448Y16891D01*
X27813Y14732D02*
Y16256D01*
X25146Y14732D02*
X27813D01*
X28448Y16891D02*
X32131D01*
X27813Y9271D02*
X29210D01*
X23241D02*
X27813D01*
X34163Y8763D02*
X37211D01*
X6731Y26289D02*
X7696D01*
X6477Y26035D02*
X6731Y26289D01*
X36957Y31750D02*
X37592Y32385D01*
X34544Y31750D02*
X36957D01*
X37592Y32385D02*
Y36576D01*
X37973Y36957D01*
X40386D01*
X25019Y31623D02*
X33147D01*
X34417Y41910D02*
X41925D01*
X33147Y40640D02*
X34417Y41910D01*
X33147Y31750D02*
Y40640D01*
X12422Y27194D02*
X13970D01*
X12192Y27424D02*
X12422Y27194D01*
X24511Y37084D02*
Y40259D01*
X25400Y41148D01*
X20931Y29694D02*
X21498Y30261D01*
X19250Y32663D02*
X20242Y33655D01*
X27305D01*
X19050Y33147D02*
X21336Y35433D01*
X25654D01*
X24511Y32131D02*
X25019Y31623D01*
X19620Y29694D02*
X20931D01*
X18818Y18161D02*
X20955D01*
X17029Y19950D02*
X18818Y18161D01*
X17029Y19950D02*
Y20701D01*
X20955Y14732D02*
Y16764D01*
X24130Y21463D02*
X25146Y20447D01*
Y14732D02*
Y20447D01*
X22479Y21463D02*
X24130Y21463D01*
X18669Y16764D02*
X20955D01*
X16764Y18669D02*
X18669Y16764D01*
X6731Y18669D02*
X16764D01*
X29083Y37973D02*
Y39797D01*
X39370Y9779D02*
X40640D01*
X36576Y12573D02*
X39370Y9779D01*
X34163Y12573D02*
X36576D01*
X29017Y39863D02*
X29083Y39797D01*
X27915Y35433D02*
X29591D01*
X27305Y34823D02*
X27915Y35433D01*
X27305Y33655D02*
Y34823D01*
X29591Y35433D02*
X30480Y36322D01*
Y40894D01*
X25908Y37084D02*
X26924D01*
X27117Y37277D01*
Y39863D01*
X25908Y35687D02*
Y37084D01*
X25654Y35433D02*
X25908Y35687D01*
X11049Y33909D02*
X11684Y33274D01*
X11049Y33909D02*
Y35306D01*
X12319Y30099D02*
Y32639D01*
X11684Y33274D02*
X12319Y32639D01*
X16256Y33639D02*
Y35179D01*
X32766Y12573D02*
Y16256D01*
Y8763D02*
Y12573D01*
X18045Y23605D02*
Y25119D01*
Y23605D02*
X18923Y22727D01*
X23320Y25404D02*
X40386D01*
X21562Y27162D02*
X23320Y25404D01*
X19836Y27162D02*
X21562D01*
X24810Y22864D02*
X40386D01*
X20996Y26678D02*
X24810Y22864D01*
X30541Y42484D02*
X31496Y41529D01*
X27117Y42484D02*
X30541D01*
X27117Y41163D02*
Y42484D01*
X27102Y41148D02*
X27117Y41163D01*
X25400Y41148D02*
X27102D01*
X11200Y26694D02*
X13970D01*
X21463Y9271D02*
X23241D01*
X20955Y16764D02*
X21028Y16691D01*
X22225D01*
X6350Y19050D02*
X6731Y18669D01*
X6350Y19050D02*
Y20828D01*
X32258Y6223D02*
X36195D01*
X29210Y9271D02*
X32258Y6223D01*
X36195D02*
X37211Y5207D01*
X40128Y1651D02*
Y3863D01*
X37973Y1651D02*
X40128D01*
X37211Y2413D02*
X37973Y1651D01*
X37211Y2413D02*
Y5207D01*
X20955Y9779D02*
X21463Y9271D01*
X20955Y9779D02*
Y11049D01*
X32131Y16891D02*
X32766Y16256D01*
X40128Y4498D02*
Y5338D01*
X39878Y5588D02*
X40128Y5338D01*
Y3863D02*
Y4498D01*
X39878Y5588D02*
X40128Y5838D01*
Y7313D01*
X16583Y10654D02*
X16591Y10646D01*
X18188D01*
Y3683D02*
Y10646D01*
X16583Y8836D02*
Y10654D01*
X16256Y8509D02*
X16583Y8836D01*
X9017Y8509D02*
X16256D01*
X8128Y9398D02*
X9017Y8509D01*
X8128Y9398D02*
Y11176D01*
X7790Y11514D02*
X8128Y11176D01*
X5746Y11514D02*
X7790D01*
X41925Y41910D02*
X42926Y40909D01*
Y17784D02*
Y40909D01*
X40386Y15244D02*
X42926Y17784D01*
X23622Y28194D02*
X24003Y27813D01*
X19620Y28194D02*
X23622D01*
X22630Y27694D02*
X24130Y26194D01*
X19620Y27694D02*
X22630D01*
X19820Y27178D02*
X19836Y27162D01*
X19636Y27178D02*
X19820D01*
X19620Y27194D02*
X19636Y27178D01*
X21209Y24257D02*
Y24921D01*
X19936Y26194D02*
X21209Y24921D01*
X19620Y26194D02*
X19936D01*
X19636Y26678D02*
X20996D01*
X19620Y26694D02*
X19636Y26678D01*
X39128Y2413D02*
Y3863D01*
X38354Y2413D02*
X39128D01*
X37973Y2794D02*
X38354Y2413D01*
X37973Y2794D02*
Y6477D01*
X37465Y6985D02*
X37973Y6477D01*
X33401Y6985D02*
X37465D01*
X32766Y7620D02*
X33401Y6985D01*
X32766Y7620D02*
Y8763D01*
X40640Y7579D02*
Y9779D01*
X39128Y7313D02*
Y8471D01*
X38328Y9271D02*
X39128Y8471D01*
X37719Y9271D02*
X38328D01*
X37211Y8763D02*
X37719Y9271D01*
X18415Y20701D02*
X18923Y21209D01*
Y22727D01*
X12192Y21336D02*
X12573D01*
X15045Y23808D01*
X30211Y41163D02*
X30480Y40894D01*
X29017Y41163D02*
X30211D01*
X32639Y8636D02*
X32766Y8763D01*
X15045Y23808D02*
Y25119D01*
X8636Y17399D02*
X15875D01*
X17029Y20701D02*
Y25103D01*
X17045Y25119D01*
X16045Y22852D02*
Y25119D01*
X15545Y22352D02*
X16045Y22852D01*
X15545Y23298D02*
Y25119D01*
X13903Y21657D02*
X15545Y23298D01*
X16545Y22006D02*
Y25119D01*
X15494Y20955D02*
X16545Y22006D01*
X17545Y22968D02*
Y25119D01*
X18545Y24051D02*
Y25119D01*
Y24051D02*
X19990Y22606D01*
X18545Y30769D02*
Y31369D01*
X17545Y32023D02*
X18185Y32663D01*
X17545Y30769D02*
Y32023D01*
X18045Y30769D02*
Y31839D01*
X18337Y32131D01*
X16545Y30769D02*
Y32028D01*
X16458Y32114D02*
X16545Y32028D01*
X15545Y30769D02*
Y32928D01*
X16256Y33639D01*
X17045Y32512D02*
X17680Y33147D01*
X17045Y30769D02*
Y32512D01*
X18185Y32663D02*
X19250D01*
X17680Y33147D02*
X19050D01*
X17545Y22968D02*
X17907Y22606D01*
X13970Y28194D02*
X14478D01*
X9601D02*
X13970D01*
X6477Y24511D02*
Y26035D01*
X16545Y30261D02*
Y30769D01*
X12724Y29694D02*
X13970D01*
X12319Y30099D02*
X12724Y29694D01*
X29210Y11190D02*
X29351Y11049D01*
X29210Y11190D02*
Y14732D01*
X16583Y15254D02*
Y16691D01*
X15875Y17399D02*
X16583Y16691D01*
X8001Y16764D02*
X8636Y17399D01*
X8001Y14512D02*
Y16764D01*
X7603Y14114D02*
X8001Y14512D01*
X5746Y14114D02*
X7603D01*
D52*
X4191Y34671D02*
D03*
Y28575D02*
D03*
Y31623D02*
D03*
Y37719D02*
D03*
Y40767D02*
D03*
X32893Y3683D02*
D03*
X30353D02*
D03*
X27813D02*
D03*
X20728D02*
D03*
X40386Y36957D02*
D03*
Y39497D02*
D03*
Y30484D02*
D03*
Y27944D02*
D03*
Y25404D02*
D03*
Y22864D02*
D03*
Y20324D02*
D03*
Y17784D02*
D03*
Y15244D02*
D03*
Y12704D02*
D03*
X13743Y3683D02*
D03*
X11203D02*
D03*
X8663D02*
D03*
X6123D02*
D03*
D53*
X16795Y27944D02*
D03*
D54*
X25273Y3683D02*
D03*
X18188D02*
D03*
D55*
X40386Y34417D02*
D03*
D56*
X14351Y35306D02*
D03*
X9525Y25019D02*
D03*
X12065Y23876D02*
D03*
X30836Y34417D02*
D03*
X21082Y31369D02*
D03*
X7696Y26289D02*
D03*
X21498Y30261D02*
D03*
X12192Y27424D02*
D03*
X29083Y37973D02*
D03*
X11684Y33274D02*
D03*
X23241Y9271D02*
D03*
Y12954D02*
D03*
X10160Y29718D02*
D03*
X22479Y21463D02*
D03*
X22225Y16691D02*
D03*
X24003Y27813D02*
D03*
X24130Y26194D02*
D03*
X40640Y9779D02*
D03*
X37719Y9271D02*
D03*
X12192Y21336D02*
D03*
X18415Y20701D02*
D03*
X17029D02*
D03*
X23241Y22860D02*
D03*
X15494Y20955D02*
D03*
X13903Y21657D02*
D03*
X16256Y32317D02*
D03*
X19990Y22606D02*
D03*
X17907D02*
D03*
X21209Y24257D02*
D03*
X15545Y22352D02*
D03*
D57*
X4367Y10827D02*
D03*
Y14827D02*
D03*
D58*
X17399Y28571D02*
D03*
X16129Y27301D02*
D03*
Y28571D02*
D03*
X17399Y27305D02*
D03*
M02*
