G04*
G04 #@! TF.GenerationSoftware,Altium Limited,Altium Designer,18.1.7 (191)*
G04*
G04 Layer_Color=65535*
%FSLAX43Y43*%
%MOMM*%
G71*
G01*
G75*
%ADD10C,0.250*%
%ADD11C,0.350*%
%ADD12C,0.450*%
%ADD13C,0.152*%
%ADD14C,0.127*%
%ADD15C,0.152*%
%ADD16C,0.200*%
%ADD17C,0.254*%
%ADD18C,0.180*%
D10*
X18033Y10654D02*
G03*
X18033Y10654I-125J0D01*
G01*
X6540Y10922D02*
G03*
X6540Y10922I-125J0D01*
G01*
D11*
X10819Y40335D02*
G03*
X10819Y40335I-150J0D01*
G01*
X26467Y39213D02*
G03*
X26467Y39213I-100J0D01*
G01*
X41278Y7413D02*
G03*
X41278Y7413I-100J0D01*
G01*
D12*
X13795Y30319D02*
G03*
X13795Y30319I-100J0D01*
G01*
D13*
X11358Y9604D02*
Y16304D01*
Y16301D02*
X15058D01*
Y9601D02*
Y16301D01*
X11358Y9601D02*
X15058D01*
X9244Y43360D02*
X21744D01*
X9244Y40460D02*
X10244D01*
X9244Y40510D02*
Y43310D01*
X11119Y40460D02*
X21744D01*
Y43335D01*
X26367Y39738D02*
X26892Y39213D01*
X26367Y39738D02*
Y41813D01*
X26892Y39213D02*
X29767D01*
X26367Y39738D02*
X26892Y39213D01*
X26367Y41813D02*
X29767D01*
Y39213D02*
Y41813D01*
X18795Y30544D02*
X19395D01*
Y29944D02*
Y30544D01*
Y25344D02*
Y25944D01*
X18795Y25344D02*
X19395D01*
X14195D02*
X14795D01*
X14195D02*
Y25944D01*
Y30544D02*
X14763D01*
X14195Y29944D02*
Y30544D01*
X26949Y10663D02*
X27249Y10363D01*
X26949Y11435D02*
X27249Y11735D01*
X26949Y10663D02*
Y11435D01*
D14*
X3417Y16764D02*
X5575D01*
X67D02*
X1017D01*
X67Y8890D02*
X1017D01*
X5575Y14732D02*
Y16727D01*
Y8927D02*
Y10922D01*
X67Y8927D02*
Y16727D01*
X3417Y8890D02*
X5575D01*
D15*
X28835Y14046D02*
X29896D01*
X28835Y15418D02*
X29896D01*
X27127D02*
X28210D01*
X27127Y14046D02*
X28210D01*
X29896D02*
Y15418D01*
X27127Y14046D02*
Y15418D01*
X27249Y10363D02*
Y11735D01*
X29810Y10363D02*
Y11735D01*
X27249Y10363D02*
X28224D01*
X27249Y11735D02*
X28224D01*
X28824D02*
X29810D01*
X28824Y10363D02*
X29810D01*
X23038D02*
Y11735D01*
X20269Y10363D02*
Y11735D01*
X21955D02*
X23038D01*
X21955Y10363D02*
X23038D01*
X20269D02*
X21330D01*
X20269Y11735D02*
X21330D01*
X23038Y14046D02*
Y15418D01*
X20269Y14046D02*
Y15418D01*
X21955D02*
X23038D01*
X21955Y14046D02*
X23038D01*
X20269D02*
X21330D01*
X20269Y15418D02*
X21330D01*
X32080Y9449D02*
X33141D01*
X32080Y8077D02*
X33141D01*
X33766D02*
X34849D01*
X33766Y9449D02*
X34849D01*
X32080Y8077D02*
Y9449D01*
X34849Y8077D02*
Y9449D01*
X32080Y13259D02*
X33141D01*
X32080Y11887D02*
X33141D01*
X33766D02*
X34849D01*
X33766Y13259D02*
X34849D01*
X32080Y11887D02*
Y13259D01*
X34849Y11887D02*
Y13259D01*
X32461Y32436D02*
X33522D01*
X32461Y31064D02*
X33522D01*
X34147D02*
X35230D01*
X34147Y32436D02*
X35230D01*
X32461Y31064D02*
Y32436D01*
X35230Y31064D02*
Y32436D01*
X20269Y18847D02*
X21330D01*
X20269Y17475D02*
X21330D01*
X21955D02*
X23038D01*
X21955Y18847D02*
X23038D01*
X20269Y17475D02*
Y18847D01*
X23038Y17475D02*
Y18847D01*
X10363Y35992D02*
X11424D01*
X10363Y34620D02*
X11424D01*
X12049D02*
X13132D01*
X12049Y35992D02*
X13132D01*
X10363Y34620D02*
Y35992D01*
X13132Y34620D02*
Y35992D01*
X15570Y35865D02*
X16631D01*
X15570Y34493D02*
X16631D01*
X17256D02*
X18339D01*
X17256Y35865D02*
X18339D01*
X15570Y34493D02*
Y35865D01*
X18339Y34493D02*
Y35865D01*
X5791Y25197D02*
X6852D01*
X5791Y23825D02*
X6852D01*
X7477D02*
X8560D01*
X7477Y25197D02*
X8560D01*
X5791Y23825D02*
Y25197D01*
X8560Y23825D02*
Y25197D01*
X8433Y20142D02*
Y21514D01*
X5664Y20142D02*
Y21514D01*
X7350D02*
X8433D01*
X7350Y20142D02*
X8433D01*
X5664D02*
X6725D01*
X5664Y21514D02*
X6725D01*
X8433Y33731D02*
Y35103D01*
X5664Y33731D02*
Y35103D01*
X7350D02*
X8433D01*
X7350Y33731D02*
X8433D01*
X5664D02*
X6725D01*
X5664Y35103D02*
X6725D01*
X29388Y32969D02*
Y34341D01*
X26619Y32969D02*
Y34341D01*
X28305D02*
X29388D01*
X28305Y32969D02*
X29388D01*
X26619D02*
X27680D01*
X26619Y34341D02*
X27680D01*
X23825Y36398D02*
Y37770D01*
X26594Y36398D02*
Y37770D01*
X23825Y36398D02*
X24908D01*
X23825Y37770D02*
X24908D01*
X25533D02*
X26594D01*
X25533Y36398D02*
X26594D01*
D16*
X2921Y36449D02*
Y39069D01*
Y36449D02*
X5461D01*
Y39069D01*
X2921D02*
X5461D01*
X2921Y39497D02*
Y42117D01*
Y39497D02*
X5461D01*
Y42117D01*
X2921D02*
X5461D01*
X24003Y2413D02*
Y4953D01*
X34163D01*
X24003Y2413D02*
X34163D01*
Y4953D01*
X21998Y2413D02*
Y4953D01*
X16918Y2413D02*
X21998D01*
X16918D02*
Y4953D01*
X21998D01*
X41656Y33147D02*
Y40767D01*
X39116D02*
X41656D01*
X39116Y33147D02*
Y40767D01*
Y33147D02*
X41656D01*
X39116Y11434D02*
Y31754D01*
Y11434D02*
X41656D01*
Y31754D01*
X39116D02*
X41656D01*
X40878Y4338D02*
X41118D01*
X38628D02*
X38878D01*
X38628Y6838D02*
X38878D01*
X40878D02*
X41128D01*
Y4338D02*
Y6838D01*
X38628Y4338D02*
Y6838D01*
X4853Y2413D02*
Y4953D01*
X15013D01*
X4853Y2413D02*
X15013D01*
Y4953D01*
X2413Y15494D02*
X3113D01*
X2880Y15261D01*
X3113Y15027D01*
X2413D01*
Y14794D02*
Y14561D01*
Y14678D01*
X2880D01*
Y14794D01*
Y13745D02*
Y14094D01*
X2763Y14211D01*
X2530D01*
X2413Y14094D01*
Y13745D01*
X2880Y13511D02*
X2413D01*
X2646D01*
X2763Y13395D01*
X2880Y13278D01*
Y13161D01*
X2413Y12695D02*
Y12462D01*
X2530Y12345D01*
X2763D01*
X2880Y12462D01*
Y12695D01*
X2763Y12812D01*
X2530D01*
X2413Y12695D01*
X3113Y12112D02*
X2530D01*
X2413Y11995D01*
Y11762D01*
X2530Y11645D01*
X3113D01*
X2996Y10945D02*
X3113Y11062D01*
Y11295D01*
X2996Y11412D01*
X2880D01*
X2763Y11295D01*
Y11062D01*
X2646Y10945D01*
X2530D01*
X2413Y11062D01*
Y11295D01*
X2530Y11412D01*
X3113Y10712D02*
X2413D01*
Y10362D01*
X2530Y10246D01*
X2646D01*
X2763Y10362D01*
Y10712D01*
Y10362D01*
X2880Y10246D01*
X2996D01*
X3113Y10362D01*
Y10712D01*
D17*
X26797Y43345D02*
X27330Y42545D01*
Y43345D02*
X26797Y42545D01*
X27597Y43345D02*
X28130D01*
X27863D01*
Y42545D01*
X28396D02*
Y43078D01*
X28663Y43345D01*
X28930Y43078D01*
Y42545D01*
Y42945D01*
X28396D01*
X29196Y43345D02*
Y42545D01*
X29729D01*
X38519Y38481D02*
X37852D01*
X37719Y38348D01*
Y38081D01*
X37852Y37948D01*
X38519D01*
X37719Y37681D02*
X38252D01*
X38519Y37415D01*
X38252Y37148D01*
X37719D01*
X38119D01*
Y37681D01*
X37719Y36882D02*
X38519D01*
Y36482D01*
X38385Y36348D01*
X38119D01*
X37986Y36482D01*
Y36882D01*
Y36615D02*
X37719Y36348D01*
X38519Y36082D02*
Y35549D01*
Y35815D01*
X37719D01*
X38385Y22454D02*
X38519Y22587D01*
Y22854D01*
X38385Y22987D01*
X38252D01*
X38119Y22854D01*
Y22587D01*
X37986Y22454D01*
X37852D01*
X37719Y22587D01*
Y22854D01*
X37852Y22987D01*
X37719Y22187D02*
X38519D01*
Y21787D01*
X38385Y21654D01*
X38119D01*
X37986Y21787D01*
Y22187D01*
X38519Y21388D02*
Y21121D01*
Y21254D01*
X37719D01*
Y21388D01*
Y21121D01*
X19456Y6508D02*
X19323Y6642D01*
X19056D01*
X18923Y6508D01*
Y6375D01*
X19056Y6242D01*
X19323D01*
X19456Y6109D01*
Y5975D01*
X19323Y5842D01*
X19056D01*
X18923Y5975D01*
X19723Y6642D02*
Y5842D01*
X19989Y6109D01*
X20256Y5842D01*
Y6642D01*
X28067Y6515D02*
X28334D01*
X28200D01*
Y5715D01*
X28067D01*
X28334D01*
X29267D02*
X28733D01*
X29267Y6248D01*
Y6381D01*
X29133Y6515D01*
X28867D01*
X28733Y6381D01*
X30066D02*
X29933Y6515D01*
X29666D01*
X29533Y6381D01*
Y5848D01*
X29666Y5715D01*
X29933D01*
X30066Y5848D01*
X8636Y6515D02*
Y5715D01*
Y6115D01*
X9169D01*
Y6515D01*
Y5715D01*
X9969Y6381D02*
X9836Y6515D01*
X9569D01*
X9436Y6381D01*
Y6248D01*
X9569Y6115D01*
X9836D01*
X9969Y5982D01*
Y5848D01*
X9836Y5715D01*
X9569D01*
X9436Y5848D01*
X10235Y5715D02*
Y6515D01*
X10635D01*
X10769Y6381D01*
Y6115D01*
X10635Y5982D01*
X10235D01*
X11035Y6515D02*
X11302D01*
X11169D01*
Y5715D01*
X11035D01*
X11302D01*
X12827Y15494D02*
X13360D01*
X13627Y15227D01*
X13360Y14961D01*
X12827D01*
X13227D01*
Y15494D01*
X12827Y14694D02*
X13627D01*
X13360Y14428D01*
X13627Y14161D01*
X12827D01*
X13493Y13361D02*
X13627Y13495D01*
Y13761D01*
X13493Y13895D01*
X13360D01*
X13227Y13761D01*
Y13495D01*
X13094Y13361D01*
X12960D01*
X12827Y13495D01*
Y13761D01*
X12960Y13895D01*
X12827Y13095D02*
Y12828D01*
Y12961D01*
X13627D01*
X13493Y13095D01*
X12827Y12428D02*
Y12162D01*
Y12295D01*
X13627D01*
X13493Y12428D01*
X12827Y11762D02*
Y11495D01*
Y11629D01*
X13627D01*
X13493Y11762D01*
X13627Y11095D02*
Y10562D01*
X13493D01*
X12960Y11095D01*
X12827D01*
Y41529D02*
Y42062D01*
X13094Y42329D01*
X13360Y42062D01*
Y41529D01*
Y41929D01*
X12827D01*
X13627Y41529D02*
Y42329D01*
X14160Y41529D01*
Y42329D01*
X14426D02*
X14960D01*
X14693D01*
Y41529D01*
X15759Y42329D02*
X15226D01*
Y41529D01*
X15759D01*
X15226Y41929D02*
X15493D01*
X16026Y41529D02*
Y42329D01*
X16559Y41529D01*
Y42329D01*
X16826Y41529D02*
Y42329D01*
X17359Y41529D01*
Y42329D01*
X17625Y41529D02*
Y42062D01*
X17892Y42329D01*
X18159Y42062D01*
Y41529D01*
Y41929D01*
X17625D01*
D18*
X27051Y13046D02*
Y12446D01*
X27451D01*
X28051Y13046D02*
X27651D01*
Y12446D01*
X28051D01*
X27651Y12746D02*
X27851D01*
X28251Y13046D02*
Y12446D01*
X28551D01*
X28650Y12546D01*
Y12946D01*
X28551Y13046D01*
X28251D01*
X33020Y10287D02*
Y10887D01*
X33320D01*
X33420Y10787D01*
Y10587D01*
X33320Y10487D01*
X33020D01*
X33220D02*
X33420Y10287D01*
X33620D02*
X33820D01*
X33720D01*
Y10887D01*
X33620Y10787D01*
X34120D02*
X34220Y10887D01*
X34420D01*
X34520Y10787D01*
Y10387D01*
X34420Y10287D01*
X34220D01*
X34120Y10387D01*
Y10787D01*
X34719Y10887D02*
Y10287D01*
Y10487D01*
X35119Y10887D01*
X34819Y10587D01*
X35119Y10287D01*
X32766Y14097D02*
Y14697D01*
X33066D01*
X33166Y14597D01*
Y14397D01*
X33066Y14297D01*
X32766D01*
X32966D02*
X33166Y14097D01*
X33366D02*
X33566D01*
X33466D01*
Y14697D01*
X33366Y14597D01*
X33866D02*
X33966Y14697D01*
X34166D01*
X34266Y14597D01*
Y14197D01*
X34166Y14097D01*
X33966D01*
X33866Y14197D01*
Y14597D01*
X34465Y14697D02*
Y14097D01*
Y14297D01*
X34865Y14697D01*
X34565Y14397D01*
X34865Y14097D01*
X20335Y12692D02*
X20235Y12792D01*
X20035D01*
X19936Y12692D01*
Y12292D01*
X20035Y12192D01*
X20235D01*
X20335Y12292D01*
X20535Y12192D02*
X20735D01*
X20635D01*
Y12792D01*
X20535Y12692D01*
X21035D02*
X21135Y12792D01*
X21335D01*
X21435Y12692D01*
Y12292D01*
X21335Y12192D01*
X21135D01*
X21035Y12292D01*
Y12692D01*
X21635Y12592D02*
Y12292D01*
X21735Y12192D01*
X22035D01*
Y12592D01*
X22635Y12792D02*
X22235D01*
Y12492D01*
X22435D01*
X22235D01*
Y12192D01*
X18942Y16756D02*
X18842Y16856D01*
X18642D01*
X18542Y16756D01*
Y16356D01*
X18642Y16256D01*
X18842D01*
X18942Y16356D01*
X19142Y16756D02*
X19242Y16856D01*
X19442D01*
X19542Y16756D01*
Y16356D01*
X19442Y16256D01*
X19242D01*
X19142Y16356D01*
Y16756D01*
X19742Y16256D02*
Y16356D01*
X19842D01*
Y16256D01*
X19742D01*
X20241D02*
X20441D01*
X20341D01*
Y16856D01*
X20241Y16756D01*
X20741Y16656D02*
Y16356D01*
X20841Y16256D01*
X21141D01*
Y16656D01*
X21741Y16856D02*
X21341D01*
Y16556D01*
X21541D01*
X21341D01*
Y16256D01*
X26892Y16510D02*
Y17110D01*
X27192D01*
X27292Y17010D01*
Y16810D01*
X27192Y16710D01*
X26892D01*
X27092D02*
X27292Y16510D01*
X27492D02*
X27692D01*
X27592D01*
Y17110D01*
X27492Y17010D01*
X27992Y16510D02*
Y16610D01*
X28092D01*
Y16510D01*
X27992D01*
X28491Y17010D02*
X28591Y17110D01*
X28791D01*
X28891Y17010D01*
Y16910D01*
X28791Y16810D01*
X28891Y16710D01*
Y16610D01*
X28791Y16510D01*
X28591D01*
X28491Y16610D01*
Y16710D01*
X28591Y16810D01*
X28491Y16910D01*
Y17010D01*
X28591Y16810D02*
X28791D01*
X29091Y17110D02*
Y16510D01*
Y16710D01*
X29491Y17110D01*
X29191Y16810D01*
X29491Y16510D01*
X21082Y19558D02*
Y20158D01*
X21382D01*
X21482Y20058D01*
Y19858D01*
X21382Y19758D01*
X21082D01*
X21282D02*
X21482Y19558D01*
X21682D02*
X21882D01*
X21782D01*
Y20158D01*
X21682Y20058D01*
X22182D02*
X22282Y20158D01*
X22482D01*
X22582Y20058D01*
Y19658D01*
X22482Y19558D01*
X22282D01*
X22182Y19658D01*
Y20058D01*
X22781Y20158D02*
Y19558D01*
Y19758D01*
X23181Y20158D01*
X22881Y19858D01*
X23181Y19558D01*
X33020Y33401D02*
Y34001D01*
X33320D01*
X33420Y33901D01*
Y33701D01*
X33320Y33601D01*
X33020D01*
X33220D02*
X33420Y33401D01*
X33620Y33901D02*
X33720Y34001D01*
X33920D01*
X34020Y33901D01*
Y33501D01*
X33920Y33401D01*
X33720D01*
X33620Y33501D01*
Y33901D01*
X34220Y33401D02*
Y33501D01*
X34320D01*
Y33401D01*
X34220D01*
X35119Y34001D02*
X34719D01*
Y33701D01*
X34919Y33801D01*
X35019D01*
X35119Y33701D01*
Y33501D01*
X35019Y33401D01*
X34819D01*
X34719Y33501D01*
X35319Y34001D02*
Y33401D01*
Y33601D01*
X35719Y34001D01*
X35419Y33701D01*
X35719Y33401D01*
X26943Y35425D02*
X26843Y35525D01*
X26643D01*
X26543Y35425D01*
Y35025D01*
X26643Y34925D01*
X26843D01*
X26943Y35025D01*
X27143D02*
X27243Y34925D01*
X27443D01*
X27543Y35025D01*
Y35425D01*
X27443Y35525D01*
X27243D01*
X27143Y35425D01*
Y35325D01*
X27243Y35225D01*
X27543D01*
X27743Y34925D02*
Y35025D01*
X27843D01*
Y34925D01*
X27743D01*
X28242Y35425D02*
X28342Y35525D01*
X28542D01*
X28642Y35425D01*
Y35025D01*
X28542Y34925D01*
X28342D01*
X28242Y35025D01*
Y35425D01*
X28842Y34725D02*
Y35325D01*
X29142D01*
X29242Y35225D01*
Y35025D01*
X29142Y34925D01*
X28842D01*
X29842Y35525D02*
X29442D01*
Y35225D01*
X29642D01*
X29442D01*
Y34925D01*
X24149Y38854D02*
X24049Y38954D01*
X23849D01*
X23749Y38854D01*
Y38454D01*
X23849Y38354D01*
X24049D01*
X24149Y38454D01*
X24349D02*
X24449Y38354D01*
X24649D01*
X24749Y38454D01*
Y38854D01*
X24649Y38954D01*
X24449D01*
X24349Y38854D01*
Y38754D01*
X24449Y38654D01*
X24749D01*
X24949Y38354D02*
Y38454D01*
X25049D01*
Y38354D01*
X24949D01*
X25448Y38854D02*
X25548Y38954D01*
X25748D01*
X25848Y38854D01*
Y38454D01*
X25748Y38354D01*
X25548D01*
X25448Y38454D01*
Y38854D01*
X26048Y38154D02*
Y38754D01*
X26348D01*
X26448Y38654D01*
Y38454D01*
X26348Y38354D01*
X26048D01*
X27048Y38954D02*
X26648D01*
Y38654D01*
X26848D01*
X26648D01*
Y38354D01*
X16129Y36830D02*
Y37430D01*
X16429D01*
X16529Y37330D01*
Y37130D01*
X16429Y37030D01*
X16129D01*
X16329D02*
X16529Y36830D01*
X16729D02*
X16929D01*
X16829D01*
Y37430D01*
X16729Y37330D01*
X17629Y36830D02*
X17229D01*
X17629Y37230D01*
Y37330D01*
X17529Y37430D01*
X17329D01*
X17229Y37330D01*
X17828Y37430D02*
Y36830D01*
Y37030D01*
X18228Y37430D01*
X17928Y37130D01*
X18228Y36830D01*
X11176D02*
Y37430D01*
X11476D01*
X11576Y37330D01*
Y37130D01*
X11476Y37030D01*
X11176D01*
X11376D02*
X11576Y36830D01*
X11776D02*
X11976D01*
X11876D01*
Y37430D01*
X11776Y37330D01*
X12276D02*
X12376Y37430D01*
X12576D01*
X12676Y37330D01*
Y36930D01*
X12576Y36830D01*
X12376D01*
X12276Y36930D01*
Y37330D01*
X12875Y37430D02*
Y36830D01*
Y37030D01*
X13275Y37430D01*
X12975Y37130D01*
X13275Y36830D01*
X2178Y21201D02*
X2078Y21301D01*
X1878D01*
X1778Y21201D01*
Y20801D01*
X1878Y20701D01*
X2078D01*
X2178Y20801D01*
X2378Y21201D02*
X2478Y21301D01*
X2678D01*
X2778Y21201D01*
Y20801D01*
X2678Y20701D01*
X2478D01*
X2378Y20801D01*
Y21201D01*
X2978Y20701D02*
Y20801D01*
X3078D01*
Y20701D01*
X2978D01*
X3477D02*
X3677D01*
X3577D01*
Y21301D01*
X3477Y21201D01*
X3977Y21101D02*
Y20801D01*
X4077Y20701D01*
X4377D01*
Y21101D01*
X4977Y21301D02*
X4577D01*
Y21001D01*
X4777D01*
X4577D01*
Y20701D01*
X2794Y24257D02*
Y24857D01*
X3094D01*
X3194Y24757D01*
Y24557D01*
X3094Y24457D01*
X2794D01*
X2994D02*
X3194Y24257D01*
X3394D02*
X3594D01*
X3494D01*
Y24857D01*
X3394Y24757D01*
X3894D02*
X3994Y24857D01*
X4194D01*
X4294Y24757D01*
Y24357D01*
X4194Y24257D01*
X3994D01*
X3894Y24357D01*
Y24757D01*
X4493Y24857D02*
Y24257D01*
Y24457D01*
X4893Y24857D01*
X4593Y24557D01*
X4893Y24257D01*
X2305Y34663D02*
X2205Y34763D01*
X2005D01*
X1905Y34663D01*
Y34263D01*
X2005Y34163D01*
X2205D01*
X2305Y34263D01*
X2505D02*
X2605Y34163D01*
X2805D01*
X2905Y34263D01*
Y34663D01*
X2805Y34763D01*
X2605D01*
X2505Y34663D01*
Y34563D01*
X2605Y34463D01*
X2905D01*
X3105Y34163D02*
Y34263D01*
X3205D01*
Y34163D01*
X3105D01*
X3604Y34663D02*
X3704Y34763D01*
X3904D01*
X4004Y34663D01*
Y34263D01*
X3904Y34163D01*
X3704D01*
X3604Y34263D01*
Y34663D01*
X4204Y33963D02*
Y34563D01*
X4504D01*
X4604Y34463D01*
Y34263D01*
X4504Y34163D01*
X4204D01*
X5204Y34763D02*
X4804D01*
Y34463D01*
X5004D01*
X4804D01*
Y34163D01*
M02*
