G04*
G04 #@! TF.GenerationSoftware,Altium Limited,Altium Designer,18.1.7 (191)*
G04*
G04 Layer_Color=32896*
%FSLAX43Y43*%
%MOMM*%
G71*
G01*
G75*
%ADD18C,0.180*%
D18*
X7874Y37343D02*
Y37843D01*
X7624Y38093D01*
X7374Y37843D01*
Y37343D01*
Y37718D01*
X7874D01*
X7124Y38093D02*
Y37343D01*
X6749D01*
X6624Y37468D01*
Y37968D01*
X6749Y38093D01*
X7124D01*
X5875Y37968D02*
X6000Y38093D01*
X6250D01*
X6374Y37968D01*
Y37468D01*
X6250Y37343D01*
X6000D01*
X5875Y37468D01*
X8509Y41136D02*
X8259D01*
X8384D01*
Y40386D01*
X8509D01*
X8259D01*
X7509Y41136D02*
X7759D01*
X7884Y41011D01*
Y40511D01*
X7759Y40386D01*
X7509D01*
X7384Y40511D01*
Y41011D01*
X7509Y41136D01*
X7134Y40261D02*
X6635D01*
X5885Y41136D02*
X6385D01*
Y40761D01*
X6135Y40886D01*
X6010D01*
X5885Y40761D01*
Y40511D01*
X6010Y40386D01*
X6260D01*
X6385Y40511D01*
X6465Y5472D02*
X5715D01*
X6090D01*
Y5972D01*
X6465D01*
X5715D01*
X6340Y6722D02*
X6465Y6597D01*
Y6347D01*
X6340Y6222D01*
X6215D01*
X6090Y6347D01*
Y6597D01*
X5965Y6722D01*
X5840D01*
X5715Y6597D01*
Y6347D01*
X5840Y6222D01*
X5715Y6972D02*
X6465D01*
Y7346D01*
X6340Y7471D01*
X6090D01*
X5965Y7346D01*
Y6972D01*
X6465Y7721D02*
Y7971D01*
Y7846D01*
X5715D01*
Y7721D01*
Y7971D01*
X6340Y8846D02*
X6465Y8721D01*
Y8471D01*
X6340Y8346D01*
X5840D01*
X5715Y8471D01*
Y8721D01*
X5840Y8846D01*
X6340Y9596D02*
X6465Y9471D01*
Y9221D01*
X6340Y9096D01*
X6215D01*
X6090Y9221D01*
Y9471D01*
X5965Y9596D01*
X5840D01*
X5715Y9471D01*
Y9221D01*
X5840Y9096D01*
X5715Y9846D02*
X6215Y10345D01*
X6465Y10595D02*
Y10845D01*
Y10720D01*
X5715D01*
Y10595D01*
Y10845D01*
X6465Y11595D02*
Y11345D01*
X6340Y11220D01*
X5840D01*
X5715Y11345D01*
Y11595D01*
X5840Y11720D01*
X6340D01*
X6465Y11595D01*
X5590Y11970D02*
Y12470D01*
X5715Y12720D02*
Y12970D01*
Y12845D01*
X6465D01*
X6340Y12720D01*
X6465Y13844D02*
Y13344D01*
X6090D01*
X6215Y13594D01*
Y13719D01*
X6090Y13844D01*
X5840D01*
X5715Y13719D01*
Y13469D01*
X5840Y13344D01*
X9005Y5472D02*
X8255D01*
X8630D01*
Y5972D01*
X9005D01*
X8255D01*
X8880Y6722D02*
X9005Y6597D01*
Y6347D01*
X8880Y6222D01*
X8755D01*
X8630Y6347D01*
Y6597D01*
X8505Y6722D01*
X8380D01*
X8255Y6597D01*
Y6347D01*
X8380Y6222D01*
X8255Y6972D02*
X9005D01*
Y7346D01*
X8880Y7471D01*
X8630D01*
X8505Y7346D01*
Y6972D01*
X9005Y7721D02*
Y7971D01*
Y7846D01*
X8255D01*
Y7721D01*
Y7971D01*
X8880Y8846D02*
X9005Y8721D01*
Y8471D01*
X8880Y8346D01*
X8380D01*
X8255Y8471D01*
Y8721D01*
X8380Y8846D01*
X9005Y9096D02*
X8255D01*
Y9596D01*
X9005Y9846D02*
X8255D01*
X8505D01*
X9005Y10345D01*
X8630Y9971D01*
X8255Y10345D01*
Y10595D02*
X8755Y11095D01*
X9005Y11345D02*
Y11595D01*
Y11470D01*
X8255D01*
Y11345D01*
Y11595D01*
X9005Y12345D02*
Y12095D01*
X8880Y11970D01*
X8380D01*
X8255Y12095D01*
Y12345D01*
X8380Y12470D01*
X8880D01*
X9005Y12345D01*
X8130Y12720D02*
Y13220D01*
X8255Y13469D02*
Y13719D01*
Y13594D01*
X9005D01*
X8880Y13469D01*
X8255Y14469D02*
X9005D01*
X8630Y14094D01*
Y14594D01*
X11545Y5472D02*
X10795D01*
X11170D01*
Y5972D01*
X11545D01*
X10795D01*
X11420Y6722D02*
X11545Y6597D01*
Y6347D01*
X11420Y6222D01*
X11295D01*
X11170Y6347D01*
Y6597D01*
X11045Y6722D01*
X10920D01*
X10795Y6597D01*
Y6347D01*
X10920Y6222D01*
X10795Y6972D02*
X11545D01*
Y7346D01*
X11420Y7471D01*
X11170D01*
X11045Y7346D01*
Y6972D01*
X11545Y7721D02*
Y7971D01*
Y7846D01*
X10795D01*
Y7721D01*
Y7971D01*
X10920Y8846D02*
X11420D01*
X11545Y8721D01*
Y8471D01*
X11420Y8346D01*
X10920D01*
X10795Y8471D01*
Y8721D01*
X11045Y8596D02*
X10795Y8846D01*
Y8721D02*
X10920Y8846D01*
X10670Y9096D02*
Y9596D01*
X10795Y9846D02*
X11545D01*
X11295Y10096D01*
X11545Y10345D01*
X10795D01*
X11545Y10595D02*
Y10845D01*
Y10720D01*
X10795D01*
Y10595D01*
Y10845D01*
X11420Y11720D02*
X11545Y11595D01*
Y11345D01*
X11420Y11220D01*
X11295D01*
X11170Y11345D01*
Y11595D01*
X11045Y11720D01*
X10920D01*
X10795Y11595D01*
Y11345D01*
X10920Y11220D01*
X11545Y12345D02*
Y12095D01*
X11420Y11970D01*
X10920D01*
X10795Y12095D01*
Y12345D01*
X10920Y12470D01*
X11420D01*
X11545Y12345D01*
X10795Y12720D02*
X11295Y13220D01*
X11545Y13469D02*
Y13719D01*
Y13594D01*
X10795D01*
Y13469D01*
Y13719D01*
X11545Y14469D02*
Y14219D01*
X11420Y14094D01*
X10920D01*
X10795Y14219D01*
Y14469D01*
X10920Y14594D01*
X11420D01*
X11545Y14469D01*
X10670Y14844D02*
Y15344D01*
X10795Y15594D02*
Y15844D01*
Y15719D01*
X11545D01*
X11420Y15594D01*
X10795Y16718D02*
Y16219D01*
X11295Y16718D01*
X11420D01*
X11545Y16593D01*
Y16344D01*
X11420Y16219D01*
X14085Y5472D02*
X13335D01*
X13710D01*
Y5972D01*
X14085D01*
X13335D01*
X13960Y6722D02*
X14085Y6597D01*
Y6347D01*
X13960Y6222D01*
X13835D01*
X13710Y6347D01*
Y6597D01*
X13585Y6722D01*
X13460D01*
X13335Y6597D01*
Y6347D01*
X13460Y6222D01*
X13335Y6972D02*
X14085D01*
Y7346D01*
X13960Y7471D01*
X13710D01*
X13585Y7346D01*
Y6972D01*
X14085Y7721D02*
Y7971D01*
Y7846D01*
X13335D01*
Y7721D01*
Y7971D01*
X14085Y8346D02*
X13335D01*
Y8721D01*
X13460Y8846D01*
X13960D01*
X14085Y8721D01*
Y8346D01*
X13210Y9096D02*
Y9596D01*
X13335Y9846D02*
X14085D01*
X13835Y10096D01*
X14085Y10345D01*
X13335D01*
X14085Y10970D02*
Y10720D01*
X13960Y10595D01*
X13460D01*
X13335Y10720D01*
Y10970D01*
X13460Y11095D01*
X13960D01*
X14085Y10970D01*
X13960Y11845D02*
X14085Y11720D01*
Y11470D01*
X13960Y11345D01*
X13835D01*
X13710Y11470D01*
Y11720D01*
X13585Y11845D01*
X13460D01*
X13335Y11720D01*
Y11470D01*
X13460Y11345D01*
X14085Y12095D02*
Y12345D01*
Y12220D01*
X13335D01*
Y12095D01*
Y12345D01*
Y12720D02*
X13835Y13220D01*
X14085Y13469D02*
Y13719D01*
Y13594D01*
X13335D01*
Y13469D01*
Y13719D01*
X14085Y14469D02*
Y14219D01*
X13960Y14094D01*
X13460D01*
X13335Y14219D01*
Y14469D01*
X13460Y14594D01*
X13960D01*
X14085Y14469D01*
X13210Y14844D02*
Y15344D01*
X13335Y15594D02*
Y15844D01*
Y15719D01*
X14085D01*
X13960Y15594D01*
Y16219D02*
X14085Y16344D01*
Y16593D01*
X13960Y16718D01*
X13835D01*
X13710Y16593D01*
Y16468D01*
Y16593D01*
X13585Y16718D01*
X13460D01*
X13335Y16593D01*
Y16344D01*
X13460Y16219D01*
X18405Y6088D02*
X18530Y5963D01*
Y5713D01*
X18405Y5588D01*
X17905D01*
X17780Y5713D01*
Y5963D01*
X17905Y6088D01*
X18155D01*
Y5838D01*
X17780Y6338D02*
X18530D01*
X17780Y6838D01*
X18530D01*
Y7088D02*
X17780D01*
Y7462D01*
X17905Y7587D01*
X18405D01*
X18530Y7462D01*
Y7088D01*
X21070Y5588D02*
Y5838D01*
Y5713D01*
X20320D01*
Y5588D01*
Y5838D01*
X21070Y6588D02*
Y6338D01*
X20945Y6213D01*
X20445D01*
X20320Y6338D01*
Y6588D01*
X20445Y6713D01*
X20945D01*
X21070Y6588D01*
X20195Y6963D02*
Y7462D01*
X20945Y7712D02*
X21070Y7837D01*
Y8087D01*
X20945Y8212D01*
X20445D01*
X20320Y8087D01*
Y7837D01*
X20445Y7712D01*
X20945D01*
X20320Y8462D02*
X20820Y8962D01*
X20945Y9712D02*
X21070Y9587D01*
Y9337D01*
X20945Y9212D01*
X20820D01*
X20695Y9337D01*
Y9587D01*
X20570Y9712D01*
X20445D01*
X20320Y9587D01*
Y9337D01*
X20445Y9212D01*
X20320Y9962D02*
X21070D01*
Y10336D01*
X20945Y10461D01*
X20695D01*
X20570Y10336D01*
Y9962D01*
X21070Y10711D02*
Y10961D01*
Y10836D01*
X20320D01*
Y10711D01*
Y10961D01*
X20945Y11836D02*
X21070Y11711D01*
Y11461D01*
X20945Y11336D01*
X20445D01*
X20320Y11461D01*
Y11711D01*
X20445Y11836D01*
X20945Y12586D02*
X21070Y12461D01*
Y12211D01*
X20945Y12086D01*
X20820D01*
X20695Y12211D01*
Y12461D01*
X20570Y12586D01*
X20445D01*
X20320Y12461D01*
Y12211D01*
X20445Y12086D01*
X20320Y13336D02*
Y12836D01*
X20820Y13336D01*
X20945D01*
X21070Y13211D01*
Y12961D01*
X20945Y12836D01*
X25517Y6088D02*
X25642Y5963D01*
Y5713D01*
X25517Y5588D01*
X25017D01*
X24892Y5713D01*
Y5963D01*
X25017Y6088D01*
X25267D01*
Y5838D01*
X24892Y6338D02*
X25642D01*
X24892Y6838D01*
X25642D01*
Y7088D02*
X24892D01*
Y7462D01*
X25017Y7587D01*
X25517D01*
X25642Y7462D01*
Y7088D01*
X28182Y5588D02*
X27682D01*
X27432Y5838D01*
X27682Y6088D01*
X28182D01*
Y6338D02*
X27432D01*
Y6713D01*
X27557Y6838D01*
X28057D01*
X28182Y6713D01*
Y6338D01*
Y7088D02*
X27432D01*
Y7462D01*
X27557Y7587D01*
X28057D01*
X28182Y7462D01*
Y7088D01*
X28057Y7837D02*
X28182Y7962D01*
Y8212D01*
X28057Y8337D01*
X27932D01*
X27807Y8212D01*
Y8087D01*
Y8212D01*
X27682Y8337D01*
X27557D01*
X27432Y8212D01*
Y7962D01*
X27557Y7837D01*
X28057Y8587D02*
X28182Y8712D01*
Y8962D01*
X28057Y9087D01*
X27932D01*
X27807Y8962D01*
Y8837D01*
Y8962D01*
X27682Y9087D01*
X27557D01*
X27432Y8962D01*
Y8712D01*
X27557Y8587D01*
X30597Y5834D02*
X30722Y5709D01*
Y5459D01*
X30597Y5334D01*
X30472D01*
X30347Y5459D01*
Y5709D01*
X30222Y5834D01*
X30097D01*
X29972Y5709D01*
Y5459D01*
X30097Y5334D01*
X30722Y6084D02*
X29972D01*
Y6459D01*
X30097Y6584D01*
X30597D01*
X30722Y6459D01*
Y6084D01*
X29972Y6834D02*
X30472D01*
X30722Y7083D01*
X30472Y7333D01*
X29972D01*
X30347D01*
Y6834D01*
X29972Y7583D02*
X30472Y8083D01*
X30722Y8333D02*
Y8583D01*
Y8458D01*
X29972D01*
Y8333D01*
Y8583D01*
X30722Y9333D02*
Y9083D01*
X30597Y8958D01*
X30097D01*
X29972Y9083D01*
Y9333D01*
X30097Y9458D01*
X30597D01*
X30722Y9333D01*
X29847Y9708D02*
Y10207D01*
X29972Y10957D02*
Y10457D01*
X30472Y10957D01*
X30597D01*
X30722Y10832D01*
Y10582D01*
X30597Y10457D01*
X33137Y5834D02*
X33262Y5709D01*
Y5459D01*
X33137Y5334D01*
X33012D01*
X32887Y5459D01*
Y5709D01*
X32762Y5834D01*
X32637D01*
X32512Y5709D01*
Y5459D01*
X32637Y5334D01*
X33137Y6584D02*
X33262Y6459D01*
Y6209D01*
X33137Y6084D01*
X32637D01*
X32512Y6209D01*
Y6459D01*
X32637Y6584D01*
X33262Y6834D02*
X32512D01*
Y7333D01*
Y7583D02*
X33012Y8083D01*
X33262Y8333D02*
Y8583D01*
Y8458D01*
X32512D01*
Y8333D01*
Y8583D01*
X33262Y9333D02*
Y9083D01*
X33137Y8958D01*
X32637D01*
X32512Y9083D01*
Y9333D01*
X32637Y9458D01*
X33137D01*
X33262Y9333D01*
X32387Y9708D02*
Y10207D01*
X32512Y10832D02*
X33262D01*
X32887Y10457D01*
Y10957D01*
X38108Y12944D02*
X38233Y13069D01*
X38483D01*
X38608Y12944D01*
Y12819D01*
X38483Y12694D01*
X38233D01*
X38108Y12569D01*
Y12444D01*
X38233Y12319D01*
X38483D01*
X38608Y12444D01*
X37858Y12319D02*
Y13069D01*
X37483D01*
X37358Y12944D01*
Y12694D01*
X37483Y12569D01*
X37858D01*
X37108Y13069D02*
X36859D01*
X36984D01*
Y12319D01*
X37108D01*
X36859D01*
X35984Y12944D02*
X36109Y13069D01*
X36359D01*
X36484Y12944D01*
Y12444D01*
X36359Y12319D01*
X36109D01*
X35984Y12444D01*
X35234Y12944D02*
X35359Y13069D01*
X35609D01*
X35734Y12944D01*
Y12819D01*
X35609Y12694D01*
X35359D01*
X35234Y12569D01*
Y12444D01*
X35359Y12319D01*
X35609D01*
X35734Y12444D01*
X34984Y12944D02*
X34859Y13069D01*
X34609D01*
X34484Y12944D01*
Y12444D01*
X34609Y12319D01*
X34859D01*
X34984Y12444D01*
Y12944D01*
X34234Y12319D02*
X33735Y12819D01*
X33485Y13069D02*
X33235D01*
X33360D01*
Y12319D01*
X33485D01*
X33235D01*
X32485Y13069D02*
X32735D01*
X32860Y12944D01*
Y12444D01*
X32735Y12319D01*
X32485D01*
X32360Y12444D01*
Y12944D01*
X32485Y13069D01*
X32110Y12194D02*
X31610D01*
X31360Y12319D02*
X31110D01*
X31235D01*
Y13069D01*
X31360Y12944D01*
X30736Y12319D02*
X30486D01*
X30611D01*
Y13069D01*
X30736Y12944D01*
X37981Y15484D02*
X38106Y15609D01*
X38356D01*
X38481Y15484D01*
Y15359D01*
X38356Y15234D01*
X38106D01*
X37981Y15109D01*
Y14984D01*
X38106Y14859D01*
X38356D01*
X38481Y14984D01*
X37731Y14859D02*
Y15609D01*
X37356D01*
X37231Y15484D01*
Y15234D01*
X37356Y15109D01*
X37731D01*
X36981Y15609D02*
X36732D01*
X36857D01*
Y14859D01*
X36981D01*
X36732D01*
X35857Y15484D02*
X35982Y15609D01*
X36232D01*
X36357Y15484D01*
Y14984D01*
X36232Y14859D01*
X35982D01*
X35857Y14984D01*
X35107Y15484D02*
X35232Y15609D01*
X35482D01*
X35607Y15484D01*
Y15359D01*
X35482Y15234D01*
X35232D01*
X35107Y15109D01*
Y14984D01*
X35232Y14859D01*
X35482D01*
X35607Y14984D01*
X34857Y14859D02*
X34607D01*
X34732D01*
Y15609D01*
X34857Y15484D01*
X34232Y14859D02*
X33733Y15359D01*
X33483Y15609D02*
Y14984D01*
X33358Y14859D01*
X33108D01*
X32983Y14984D01*
Y15609D01*
X32733D02*
X32233D01*
X32483D01*
Y14859D01*
X31983Y15609D02*
X31483Y14859D01*
Y15609D02*
X31983Y14859D01*
X31233Y15609D02*
Y14859D01*
X30858D01*
X30733Y14984D01*
Y15484D01*
X30858Y15609D01*
X31233D01*
X30484Y14859D02*
X29984Y15359D01*
X29734Y15609D02*
X29484D01*
X29609D01*
Y14859D01*
X29734D01*
X29484D01*
X28734Y15609D02*
X28984D01*
X29109Y15484D01*
Y14984D01*
X28984Y14859D01*
X28734D01*
X28609Y14984D01*
Y15484D01*
X28734Y15609D01*
X28359Y14734D02*
X27859D01*
X27609Y14859D02*
X27360D01*
X27485D01*
Y15609D01*
X27609Y15484D01*
X38108Y18024D02*
X38233Y18149D01*
X38483D01*
X38608Y18024D01*
Y17899D01*
X38483Y17774D01*
X38233D01*
X38108Y17649D01*
Y17524D01*
X38233Y17399D01*
X38483D01*
X38608Y17524D01*
X37858Y17399D02*
Y18149D01*
X37483D01*
X37358Y18024D01*
Y17774D01*
X37483Y17649D01*
X37858D01*
X37108Y18149D02*
X36859D01*
X36984D01*
Y17399D01*
X37108D01*
X36859D01*
X35984Y18024D02*
X36109Y18149D01*
X36359D01*
X36484Y18024D01*
Y17524D01*
X36359Y17399D01*
X36109D01*
X35984Y17524D01*
X35234Y18024D02*
X35359Y18149D01*
X35609D01*
X35734Y18024D01*
Y17899D01*
X35609Y17774D01*
X35359D01*
X35234Y17649D01*
Y17524D01*
X35359Y17399D01*
X35609D01*
X35734Y17524D01*
X34484Y17399D02*
X34984D01*
X34484Y17899D01*
Y18024D01*
X34609Y18149D01*
X34859D01*
X34984Y18024D01*
X34234Y17399D02*
X33735Y17899D01*
X33485Y18149D02*
X33235D01*
X33360D01*
Y17399D01*
X33485D01*
X33235D01*
X32485Y18149D02*
X32735D01*
X32860Y18024D01*
Y17524D01*
X32735Y17399D01*
X32485D01*
X32360Y17524D01*
Y18024D01*
X32485Y18149D01*
X32110Y17274D02*
X31610D01*
X31360Y18024D02*
X31235Y18149D01*
X30985D01*
X30860Y18024D01*
Y17524D01*
X30985Y17399D01*
X31235D01*
X31360Y17524D01*
Y18024D01*
X38108Y20691D02*
X38233Y20816D01*
X38483D01*
X38608Y20691D01*
Y20566D01*
X38483Y20441D01*
X38233D01*
X38108Y20316D01*
Y20191D01*
X38233Y20066D01*
X38483D01*
X38608Y20191D01*
X37858Y20066D02*
Y20816D01*
X37483D01*
X37358Y20691D01*
Y20441D01*
X37483Y20316D01*
X37858D01*
X37108Y20816D02*
X36859D01*
X36984D01*
Y20066D01*
X37108D01*
X36859D01*
X35984Y20691D02*
X36109Y20816D01*
X36359D01*
X36484Y20691D01*
Y20191D01*
X36359Y20066D01*
X36109D01*
X35984Y20191D01*
X35734Y20816D02*
Y20066D01*
X35234D01*
X34984Y20816D02*
Y20066D01*
Y20316D01*
X34484Y20816D01*
X34859Y20441D01*
X34484Y20066D01*
X34234D02*
X33735Y20566D01*
X33485Y20816D02*
X33235D01*
X33360D01*
Y20066D01*
X33485D01*
X33235D01*
X32485Y20816D02*
X32735D01*
X32860Y20691D01*
Y20191D01*
X32735Y20066D01*
X32485D01*
X32360Y20191D01*
Y20691D01*
X32485Y20816D01*
X32110Y19941D02*
X31610D01*
X30860Y20816D02*
X31110Y20691D01*
X31360Y20441D01*
Y20191D01*
X31235Y20066D01*
X30985D01*
X30860Y20191D01*
Y20316D01*
X30985Y20441D01*
X31360D01*
X38108Y23231D02*
X38233Y23356D01*
X38483D01*
X38608Y23231D01*
Y23106D01*
X38483Y22981D01*
X38233D01*
X38108Y22856D01*
Y22731D01*
X38233Y22606D01*
X38483D01*
X38608Y22731D01*
X37858Y22606D02*
Y23356D01*
X37483D01*
X37358Y23231D01*
Y22981D01*
X37483Y22856D01*
X37858D01*
X37108Y23356D02*
X36859D01*
X36984D01*
Y22606D01*
X37108D01*
X36859D01*
X36484Y23356D02*
Y22606D01*
Y22981D01*
X35984D01*
Y23356D01*
Y22606D01*
X35734Y23356D02*
Y22606D01*
X35359D01*
X35234Y22731D01*
Y23231D01*
X35359Y23356D01*
X35734D01*
X34984Y22606D02*
X34484Y23106D01*
X34234Y23356D02*
X33984D01*
X34109D01*
Y22606D01*
X34234D01*
X33984D01*
X33235Y23356D02*
X33485D01*
X33610Y23231D01*
Y22731D01*
X33485Y22606D01*
X33235D01*
X33110Y22731D01*
Y23231D01*
X33235Y23356D01*
X32860Y22481D02*
X32360D01*
X32110Y22731D02*
X31985Y22606D01*
X31735D01*
X31610Y22731D01*
Y23231D01*
X31735Y23356D01*
X31985D01*
X32110Y23231D01*
Y23106D01*
X31985Y22981D01*
X31610D01*
X38108Y25644D02*
X38233Y25769D01*
X38483D01*
X38608Y25644D01*
Y25519D01*
X38483Y25394D01*
X38233D01*
X38108Y25269D01*
Y25144D01*
X38233Y25019D01*
X38483D01*
X38608Y25144D01*
X37858Y25019D02*
Y25769D01*
X37483D01*
X37358Y25644D01*
Y25394D01*
X37483Y25269D01*
X37858D01*
X37108Y25769D02*
X36859D01*
X36984D01*
Y25019D01*
X37108D01*
X36859D01*
X36484Y25769D02*
Y25019D01*
X36234Y25269D01*
X35984Y25019D01*
Y25769D01*
X35734Y25019D02*
Y25769D01*
X35359D01*
X35234Y25644D01*
Y25394D01*
X35359Y25269D01*
X35734D01*
X34984Y25019D02*
X34484Y25519D01*
X34234Y25769D02*
X33984D01*
X34109D01*
Y25019D01*
X34234D01*
X33984D01*
X33235Y25769D02*
X33485D01*
X33610Y25644D01*
Y25144D01*
X33485Y25019D01*
X33235D01*
X33110Y25144D01*
Y25644D01*
X33235Y25769D01*
X32860Y24894D02*
X32360D01*
X32110Y25019D02*
X31860D01*
X31985D01*
Y25769D01*
X32110Y25644D01*
X31485D02*
X31360Y25769D01*
X31110D01*
X30985Y25644D01*
Y25144D01*
X31110Y25019D01*
X31360D01*
X31485Y25144D01*
Y25644D01*
X38108Y28184D02*
X38233Y28309D01*
X38483D01*
X38608Y28184D01*
Y28059D01*
X38483Y27934D01*
X38233D01*
X38108Y27809D01*
Y27684D01*
X38233Y27559D01*
X38483D01*
X38608Y27684D01*
X37858Y27559D02*
Y28309D01*
X37483D01*
X37358Y28184D01*
Y27934D01*
X37483Y27809D01*
X37858D01*
X37108Y28309D02*
X36859D01*
X36984D01*
Y27559D01*
X37108D01*
X36859D01*
X35984Y27684D02*
Y28184D01*
X36109Y28309D01*
X36359D01*
X36484Y28184D01*
Y27684D01*
X36359Y27559D01*
X36109D01*
X36234Y27809D02*
X35984Y27559D01*
X36109D02*
X35984Y27684D01*
X35734Y27434D02*
X35234D01*
X34984Y27559D02*
Y28309D01*
X34734Y28059D01*
X34484Y28309D01*
Y27559D01*
X34234Y28309D02*
X33984D01*
X34109D01*
Y27559D01*
X34234D01*
X33984D01*
X33110Y28184D02*
X33235Y28309D01*
X33485D01*
X33610Y28184D01*
Y28059D01*
X33485Y27934D01*
X33235D01*
X33110Y27809D01*
Y27684D01*
X33235Y27559D01*
X33485D01*
X33610Y27684D01*
X32485Y28309D02*
X32735D01*
X32860Y28184D01*
Y27684D01*
X32735Y27559D01*
X32485D01*
X32360Y27684D01*
Y28184D01*
X32485Y28309D01*
X32110Y27559D02*
X31610Y28059D01*
X31360Y28309D02*
X31110D01*
X31235D01*
Y27559D01*
X31360D01*
X31110D01*
X30361Y28309D02*
X30611D01*
X30736Y28184D01*
Y27684D01*
X30611Y27559D01*
X30361D01*
X30236Y27684D01*
Y28184D01*
X30361Y28309D01*
X29986Y27434D02*
X29486D01*
X29236Y28309D02*
X28736D01*
Y28184D01*
X29236Y27684D01*
Y27559D01*
X38108Y30851D02*
X38233Y30976D01*
X38483D01*
X38608Y30851D01*
Y30726D01*
X38483Y30601D01*
X38233D01*
X38108Y30476D01*
Y30351D01*
X38233Y30226D01*
X38483D01*
X38608Y30351D01*
X37858Y30226D02*
Y30976D01*
X37483D01*
X37358Y30851D01*
Y30601D01*
X37483Y30476D01*
X37858D01*
X37108Y30976D02*
X36859D01*
X36984D01*
Y30226D01*
X37108D01*
X36859D01*
X36484Y30976D02*
Y30226D01*
X36109D01*
X35984Y30351D01*
Y30851D01*
X36109Y30976D01*
X36484D01*
X35734Y30101D02*
X35234D01*
X34984Y30226D02*
Y30976D01*
X34734Y30726D01*
X34484Y30976D01*
Y30226D01*
X33860Y30976D02*
X34109D01*
X34234Y30851D01*
Y30351D01*
X34109Y30226D01*
X33860D01*
X33735Y30351D01*
Y30851D01*
X33860Y30976D01*
X32985Y30851D02*
X33110Y30976D01*
X33360D01*
X33485Y30851D01*
Y30726D01*
X33360Y30601D01*
X33110D01*
X32985Y30476D01*
Y30351D01*
X33110Y30226D01*
X33360D01*
X33485Y30351D01*
X32735Y30976D02*
X32485D01*
X32610D01*
Y30226D01*
X32735D01*
X32485D01*
X32110D02*
X31610Y30726D01*
X31360Y30976D02*
X31110D01*
X31235D01*
Y30226D01*
X31360D01*
X31110D01*
X30361Y30976D02*
X30611D01*
X30736Y30851D01*
Y30351D01*
X30611Y30226D01*
X30361D01*
X30236Y30351D01*
Y30851D01*
X30361Y30976D01*
X29986Y30101D02*
X29486D01*
X29236Y30851D02*
X29111Y30976D01*
X28861D01*
X28736Y30851D01*
Y30726D01*
X28861Y30601D01*
X28736Y30476D01*
Y30351D01*
X28861Y30226D01*
X29111D01*
X29236Y30351D01*
Y30476D01*
X29111Y30601D01*
X29236Y30726D01*
Y30851D01*
X29111Y30601D02*
X28861D01*
X38108Y34788D02*
X38233Y34913D01*
X38483D01*
X38608Y34788D01*
Y34288D01*
X38483Y34163D01*
X38233D01*
X38108Y34288D01*
Y34538D01*
X38358D01*
X37858Y34163D02*
Y34913D01*
X37358Y34163D01*
Y34913D01*
X37108D02*
Y34163D01*
X36734D01*
X36609Y34288D01*
Y34788D01*
X36734Y34913D01*
X37108D01*
X38608Y37453D02*
Y36828D01*
X38483Y36703D01*
X38233D01*
X38108Y36828D01*
Y37453D01*
X37858D02*
X37358D01*
X37608D01*
Y36703D01*
X37108Y37453D02*
X36609Y36703D01*
Y37453D02*
X37108Y36703D01*
X36359Y37453D02*
Y36703D01*
X35984D01*
X35859Y36828D01*
Y37328D01*
X35984Y37453D01*
X36359D01*
X35609Y36703D02*
X35109Y37203D01*
X34359Y37328D02*
X34484Y37453D01*
X34734D01*
X34859Y37328D01*
Y37203D01*
X34734Y37078D01*
X34484D01*
X34359Y36953D01*
Y36828D01*
X34484Y36703D01*
X34734D01*
X34859Y36828D01*
X34109Y36703D02*
Y37453D01*
X33735D01*
X33610Y37328D01*
Y37078D01*
X33735Y36953D01*
X34109D01*
X33360Y37453D02*
X33110D01*
X33235D01*
Y36703D01*
X33360D01*
X33110D01*
X32235Y37328D02*
X32360Y37453D01*
X32610D01*
X32735Y37328D01*
Y36828D01*
X32610Y36703D01*
X32360D01*
X32235Y36828D01*
X31485Y37328D02*
X31610Y37453D01*
X31860D01*
X31985Y37328D01*
Y37203D01*
X31860Y37078D01*
X31610D01*
X31485Y36953D01*
Y36828D01*
X31610Y36703D01*
X31860D01*
X31985Y36828D01*
X31235Y36703D02*
X30985D01*
X31110D01*
Y37453D01*
X31235Y37328D01*
X30611Y36703D02*
X30111Y37203D01*
X29861Y37453D02*
X29611D01*
X29736D01*
Y36703D01*
X29861D01*
X29611D01*
X28861Y37453D02*
X29111D01*
X29236Y37328D01*
Y36828D01*
X29111Y36703D01*
X28861D01*
X28736Y36828D01*
Y37328D01*
X28861Y37453D01*
X28486Y36578D02*
X27986D01*
X27736Y36703D02*
X27487D01*
X27612D01*
Y37453D01*
X27736Y37328D01*
X38608Y39993D02*
Y39368D01*
X38483Y39243D01*
X38233D01*
X38108Y39368D01*
Y39993D01*
X37858Y39243D02*
Y39993D01*
X37483D01*
X37358Y39868D01*
Y39618D01*
X37483Y39493D01*
X37858D01*
X37608D02*
X37358Y39243D01*
X37108Y39993D02*
X36609Y39243D01*
Y39993D02*
X37108Y39243D01*
X36359Y39993D02*
Y39243D01*
X35984D01*
X35859Y39368D01*
Y39868D01*
X35984Y39993D01*
X36359D01*
X35609Y39243D02*
X35109Y39743D01*
X34859Y39993D02*
X34609D01*
X34734D01*
Y39243D01*
X34859D01*
X34609D01*
X33860Y39993D02*
X34109D01*
X34234Y39868D01*
Y39368D01*
X34109Y39243D01*
X33860D01*
X33735Y39368D01*
Y39868D01*
X33860Y39993D01*
X33485Y39118D02*
X32985D01*
X32735Y39868D02*
X32610Y39993D01*
X32360D01*
X32235Y39868D01*
Y39743D01*
X32360Y39618D01*
X32485D01*
X32360D01*
X32235Y39493D01*
Y39368D01*
X32360Y39243D01*
X32610D01*
X32735Y39368D01*
M02*
